<?xml version="1.0" encoding="utf-8"?>
<!-- Generator: Adobe Illustrator 16.0.0, SVG Export Plug-In . SVG Version: 6.00 Build 0)  -->
<!DOCTYPE svg PUBLIC "-//W3C//DTD SVG 1.1//EN" "http://www.w3.org/Graphics/SVG/1.1/DTD/svg11.dtd">
<svg version="1.1" id="Layer_1" xmlns="http://www.w3.org/2000/svg" xmlns:xlink="http://www.w3.org/1999/xlink" x="0px" y="0px"
	 width="206px" height="146px" viewBox="0 0 206 146" enable-background="new 0 0 206 146" xml:space="preserve">
<g>
	<rect x="114.971" y="110.864" fill="#0593A1" width="26.435" height="7.927"/>
	<rect x="112.729" y="102.194" fill="#06A5B5" width="22.522" height="7.927"/>
	<rect x="106.664" y="93.523" fill="#07B5C7" width="33.311" height="7.927"/>
	<rect x="108.248" y="84.854" fill="#08C3D6" width="34.889" height="7.927"/>
	<rect x="106.008" y="76.183" fill="#08CFE3" width="24.105" height="7.927"/>
	<rect x="103.767" y="67.512" fill="#09E2F7" width="33.272" height="7.927"/>
	<g>
		<g>
			<g>
				<path fill="#F2C28D" d="M110.131,99.541v-3.185c-1.512,1.753-2.761,2.182-5.626,2.182c-0.014,0-0.027,0-0.041,0
					c-0.003,0-0.007,0-0.01,0s-0.006,0-0.009,0c-0.014,0-0.027,0-0.041,0c-2.866,0-4.114-0.429-5.627-2.182v3.185l5.677,5.421
					L110.131,99.541z"/>
				<path fill="#61554E" d="M96.311,107.959l-3,0.262l-1.275-5.218l0,0l-4.865,1.244c-2.874,0.945-4.816,3.631-4.816,6.657v7.887
					h1.805h5.216h1.455h8.548l-5.554-9.055L96.311,107.959z"/>
				<path fill="#61554E" d="M121.738,104.247l-4.865-1.244l0,0l-1.274,5.218l-3.001-0.262l2.488,1.777l-5.554,9.055h8.547h1.455
					h5.217h1.805v-7.887C126.556,107.878,124.612,105.192,121.738,104.247z"/>
				<polygon fill="#EDEDED" points="100.67,108.221 99.437,106.923 102.244,116.446 102.933,108.793 102.677,106.493 				"/>
				<polygon fill="#EDEDED" points="106.232,106.493 105.977,108.793 106.664,116.446 109.473,106.923 108.239,108.221 				"/>
				<polygon fill="#C6C6C6" points="99.437,106.923 100.67,108.221 102.677,106.493 104.454,104.962 98.777,99.541 97.523,100.438 
									"/>
				<polygon fill="#C6C6C6" points="106.232,106.493 108.239,108.221 109.473,106.923 111.385,100.438 110.131,99.541 
					104.454,104.962 				"/>
				<polygon fill="#B6312F" points="104.454,104.962 102.677,106.493 102.933,108.793 105.977,108.793 106.232,106.493 				"/>
				<polygon fill="#CF4941" points="105.977,108.793 102.933,108.793 102.244,116.446 102.937,118.791 105.973,118.791 
					106.664,116.446 				"/>
				<path fill="#FFD2A1" d="M104.404,98.538c0.014,0,0.027,0,0.041,0c0.003,0,0.006,0,0.009,0s0.007,0,0.01,0
					c0.014,0,0.027,0,0.041,0c2.865,0,4.114-0.429,5.626-2.182c0.667-0.773,1.385-1.802,2.315-3.168
					c0.787-1.154,1.402-2.882,1.865-5.065c0.059,0.021,0.116,0.043,0.177,0.054c0.196,0.034,0.401,0.009,0.598-0.068
					c0.837-0.315,1.095-1.504,1.342-3.041c0.308-1.896,0.221-3.586-0.829-3.757c-0.572-0.095-1.162,0.281-1.632,0.956v-5.107
					c0-2.238-1.811-4.048-4.048-4.048H98.99c-2.238,0-4.049,1.811-4.049,4.048v5.107c-0.47-0.675-1.059-1.051-1.631-0.956
					c-1.051,0.171-1.228,1.86-0.92,3.757c0.247,1.537,0.596,2.726,1.433,3.041c0.196,0.077,0.401,0.103,0.598,0.068
					c0.061-0.011,0.118-0.033,0.176-0.054c0.464,2.184,1.079,3.911,1.865,5.065c0.932,1.366,1.648,2.395,2.315,3.168
					C100.29,98.109,101.538,98.538,104.404,98.538z"/>
				<path fill="#7D4E24" d="M94.941,82.267v-5.107c0-2.238,1.811-4.048,4.049-4.048h10.929c2.237,0,4.048,1.811,4.048,4.048v5.107
					c0.47-0.675,1.06-1.051,1.632-0.956l0.333-4.407c0.085-2.298-0.783-4.522-2.357-6.192c-2.278-2.416-4.556-3.199-9.11-3.199
					c-0.003,0-0.007,0-0.01,0s-0.006,0-0.009,0c-4.556,0-6.833,0.783-9.11,3.199c-1.575,1.67-2.443,3.895-2.357,6.192l0.333,4.407
					C93.883,81.216,94.472,81.592,94.941,82.267z"/>
				<polygon fill="#A18D81" points="112.598,107.959 115.599,108.221 116.873,103.003 116.873,103.003 111.385,100.438 
					111.385,100.438 109.473,106.923 106.664,116.446 105.973,118.791 106.875,118.791 108.592,118.791 109.532,118.791 
					115.086,109.736 				"/>
				<polygon fill="#A18D81" points="99.437,106.923 97.523,100.438 97.523,100.438 92.035,103.003 92.035,103.003 93.311,108.221 
					96.311,107.959 93.823,109.736 99.377,118.791 100.316,118.791 102.034,118.791 102.937,118.791 102.244,116.446 				"/>
			</g>
		</g>
		<path fill="#7D4E24" d="M115.49,76.385c-6.119-0.143-13.065,1.278-18.585-2.693c-2.114-1.184-0.593-3.3-0.593-3.3h16.601
			L115.49,76.385z"/>
	</g>
</g>
<g>
	<g>
		<g>
			<path fill="#F2C28D" d="M45.675,93.151v-1.873c-0.89,1.031-1.624,1.283-3.311,1.283c-0.008,0-0.016,0-0.023,0
				c-0.002,0-0.004,0-0.006,0s-0.004,0-0.006,0c-0.008,0-0.016,0-0.023,0c-1.687,0-2.421-0.252-3.311-1.283v1.873l3.34,3.189
				L45.675,93.151z"/>
			<path fill="#28324E" d="M37.544,98.104l-1.766,0.154l-0.75-3.07l0,0l-2.862,0.732c-1.691,0.556-2.834,2.136-2.834,3.916v4.641
				h1.062h3.069h0.855h5.029L36.08,99.15L37.544,98.104z"/>
			<path fill="#28324E" d="M52.504,95.921l-2.862-0.732l0,0l-0.75,3.07l-1.766-0.154l1.464,1.046l-3.268,5.327h5.028h0.856h3.069
				h1.062v-4.641C55.338,98.057,54.195,96.477,52.504,95.921z"/>
			<polygon fill="#EDEDED" points="40.108,98.259 39.383,97.495 41.035,103.098 41.439,98.595 41.289,97.242 			"/>
			<polygon fill="#EDEDED" points="43.381,97.242 43.23,98.595 43.635,103.098 45.287,97.495 44.562,98.259 			"/>
			<polygon fill="#C6C6C6" points="39.383,97.495 40.108,98.259 41.289,97.242 42.335,96.341 38.995,93.151 38.257,93.68 			"/>
			<polygon fill="#C6C6C6" points="43.381,97.242 44.562,98.259 45.287,97.495 46.412,93.68 45.675,93.151 42.335,96.341 			"/>
			<polygon fill="#B6312F" points="42.335,96.341 41.289,97.242 41.439,98.595 43.23,98.595 43.381,97.242 			"/>
			<polygon fill="#CF4941" points="43.23,98.595 41.439,98.595 41.035,103.098 41.441,104.478 43.229,104.478 43.635,103.098 			"/>
			<path fill="#FFD2A1" d="M42.306,92.562c0.008,0,0.016,0,0.023,0c0.002,0,0.004,0,0.006,0s0.004,0,0.006,0
				c0.008,0,0.016,0,0.023,0c1.687,0,2.421-0.252,3.311-1.283c0.393-0.455,0.814-1.06,1.362-1.864
				c0.463-0.679,0.824-1.695,1.098-2.979c0.034,0.012,0.067,0.025,0.104,0.031c0.115,0.021,0.236,0.005,0.352-0.04
				c0.492-0.186,0.644-0.885,0.79-1.789c0.181-1.116,0.13-2.11-0.488-2.211c-0.337-0.056-0.684,0.166-0.96,0.562v-3.005
				c0-1.316-1.065-2.382-2.382-2.382h-6.43c-1.316,0-2.382,1.065-2.382,2.382v3.005c-0.276-0.396-0.623-0.618-0.96-0.562
				c-0.618,0.101-0.722,1.095-0.541,2.211c0.146,0.904,0.35,1.604,0.843,1.789c0.115,0.045,0.236,0.061,0.352,0.04
				c0.035-0.006,0.069-0.02,0.104-0.031c0.272,1.284,0.635,2.301,1.098,2.979c0.548,0.805,0.97,1.409,1.362,1.864
				C39.885,92.31,40.619,92.562,42.306,92.562z"/>
			<path fill="#7D4E24" d="M36.738,82.988v-3.005c0-1.316,1.065-2.382,2.382-2.382h6.43c1.316,0,2.382,1.065,2.382,2.382v3.005
				c0.276-0.396,0.623-0.618,0.96-0.562l0.195-2.593c0.051-1.352-0.46-2.66-1.387-3.644c-1.34-1.421-2.68-1.881-5.359-1.881
				c-0.002,0-0.004,0-0.006,0s-0.004,0-0.006,0c-2.68,0-4.02,0.46-5.359,1.881c-0.927,0.983-1.438,2.292-1.388,3.644l0.196,2.593
				C36.115,82.37,36.462,82.592,36.738,82.988z"/>
			<polygon fill="#485678" points="47.126,98.104 48.892,98.259 49.642,95.188 49.642,95.188 46.412,93.68 46.412,93.68 
				45.287,97.495 43.635,103.098 43.229,104.478 43.759,104.478 44.77,104.478 45.322,104.478 48.59,99.15 			"/>
			<polygon fill="#485678" points="39.383,97.495 38.257,93.68 38.257,93.68 35.028,95.188 35.028,95.188 35.778,98.259 
				37.544,98.104 36.08,99.15 39.348,104.478 39.9,104.478 40.911,104.478 41.441,104.478 41.035,103.098 			"/>
		</g>
	</g>
	<path fill="#DF4937" d="M7.937,137.21l3.503,2.246c1.317,0.845,3.024,0.447,3.797-0.861l16.998-28.774l-6.041-3.873L7.135,133.4
		C6.269,134.648,6.619,136.365,7.937,137.21z"/>
	<path fill="#FF715F" d="M25.897,107.217l5.307,3.402c0.789,0.506,1.839,0.276,2.345-0.513l2.225-3.47l-8.164-5.234l-2.225,3.47
		C24.879,105.661,25.108,106.711,25.897,107.217z"/>
	<path fill="#DF4937" d="M24.021,75.86c6.488-10.117,19.996-13.07,30.113-6.583c10.117,6.488,13.07,19.997,6.583,30.114
		s-19.997,13.069-30.114,6.582S17.534,85.978,24.021,75.86z M28.64,78.821c-4.854,7.571-2.646,17.68,4.926,22.534
		c7.57,4.854,17.68,2.646,22.534-4.926c4.854-7.57,2.645-17.68-4.926-22.534S33.494,71.251,28.64,78.821z"/>
	<path fill="#DADADA" d="M57.043,91.741c0.771-2.746,0.757-5.664-0.054-8.42l-0.147-0.471c-0.671-2.034-1.759-3.891-3.179-5.458
		L50.84,79.95c1.052,1.161,1.86,2.532,2.365,4.036l0.146,0.471c0.592,2.049,0.596,4.216,0.023,6.255L57.043,91.741z"/>
	<path fill="#DADADA" d="M27.212,86.062c-0.021,0.202-0.038,0.404-0.051,0.607l-0.022,0.492c-0.094,3.063,0.739,6.075,2.377,8.647
		l2.442-1.555c-1.318-2.07-1.992-4.492-1.927-6.958l0.022-0.492c0.011-0.148,0.022-0.297,0.038-0.445L27.212,86.062z"/>
</g>
<g>
	<g>
		<g>
			<path fill="#F2C28D" d="M56.384,50.004v-1.422c-0.675,0.783-1.232,0.974-2.512,0.974c-0.007,0-0.013,0-0.019,0
				c-0.002,0-0.003,0-0.004,0c-0.002,0-0.003,0-0.005,0c-0.006,0-0.012,0-0.018,0c-1.28,0-1.838-0.191-2.513-0.974v1.422l2.535,2.42
				L56.384,50.004z"/>
			<path fill="#035F69" d="M50.213,53.763l-1.34,0.117l-0.569-2.33l0,0l-2.172,0.555c-1.283,0.422-2.15,1.621-2.15,2.973V58.6h0.806
				h2.329h0.649h3.816l-2.479-4.043L50.213,53.763z"/>
			<path fill="#035F69" d="M61.566,52.105l-2.172-0.555l0,0l-0.569,2.33l-1.34-0.117l1.111,0.793l-2.48,4.043h3.816h0.649h2.329
				h0.806v-3.521C63.717,53.727,62.85,52.528,61.566,52.105z"/>
			<polygon fill="#EDEDED" points="52.159,53.88 51.608,53.3 52.862,57.553 53.17,54.136 53.056,53.108 			"/>
			<polygon fill="#EDEDED" points="54.643,53.108 54.528,54.136 54.836,57.553 56.09,53.3 55.539,53.88 			"/>
			<polygon fill="#C6C6C6" points="51.608,53.3 52.159,53.88 53.056,53.108 53.85,52.425 51.314,50.004 50.755,50.405 			"/>
			<polygon fill="#C6C6C6" points="54.643,53.108 55.539,53.88 56.09,53.3 56.943,50.405 56.384,50.004 53.85,52.425 			"/>
			<polygon fill="#28324E" points="53.85,52.425 53.056,53.108 53.17,54.136 54.528,54.136 54.643,53.108 			"/>
			<polygon fill="#485678" points="54.528,54.136 53.17,54.136 52.862,57.553 53.171,58.6 54.527,58.6 54.836,57.553 			"/>
			<path fill="#FFD2A1" d="M53.827,49.557c0.006,0,0.012,0,0.018,0c0.002,0,0.003,0,0.005,0c0.001,0,0.002,0,0.004,0
				c0.006,0,0.012,0,0.019,0c1.279,0,1.837-0.191,2.512-0.974c0.298-0.345,0.618-0.804,1.034-1.415
				c0.351-0.516,0.626-1.287,0.833-2.262c0.025,0.009,0.051,0.02,0.078,0.024c0.088,0.015,0.18,0.003,0.268-0.031
				c0.373-0.141,0.488-0.671,0.599-1.358c0.138-0.847,0.099-1.601-0.37-1.678c-0.256-0.042-0.519,0.126-0.729,0.427v-2.28
				c0-1-0.809-1.808-1.808-1.808h-4.88c-0.999,0-1.808,0.808-1.808,1.808v2.28c-0.21-0.301-0.473-0.469-0.729-0.427
				c-0.469,0.077-0.548,0.831-0.41,1.678c0.11,0.687,0.266,1.217,0.64,1.358c0.087,0.034,0.179,0.046,0.267,0.031
				c0.027-0.005,0.053-0.015,0.079-0.024c0.207,0.975,0.481,1.746,0.833,2.262c0.415,0.61,0.735,1.069,1.033,1.415
				C51.989,49.365,52.547,49.557,53.827,49.557z"/>
			<path fill="#7D4E24" d="M49.602,42.292v-2.28c0-1,0.809-1.808,1.808-1.808h4.88c0.999,0,1.808,0.808,1.808,1.808v2.28
				c0.21-0.301,0.473-0.469,0.729-0.427l0.148-1.968c0.038-1.026-0.35-2.019-1.053-2.765c-1.017-1.079-2.033-1.428-4.067-1.428
				c-0.002,0-0.003,0-0.004,0c-0.002,0-0.003,0-0.005,0c-2.033,0-3.051,0.35-4.067,1.428c-0.703,0.746-1.091,1.739-1.053,2.765
				l0.148,1.968C49.129,41.822,49.392,41.99,49.602,42.292z"/>
			<polygon fill="#0593A1" points="57.485,53.763 58.825,53.88 59.395,51.55 59.395,51.55 56.943,50.405 56.943,50.405 56.09,53.3 
				54.836,57.553 54.527,58.6 54.93,58.6 55.696,58.6 56.116,58.6 58.597,54.557 			"/>
			<polygon fill="#0593A1" points="51.608,53.3 50.755,50.405 50.755,50.405 48.304,51.55 48.304,51.55 48.873,53.88 50.213,53.763 
				49.103,54.557 51.582,58.6 52.002,58.6 52.769,58.6 53.171,58.6 52.862,57.553 			"/>
		</g>
	</g>
	<g>
		<g>
			<path fill="#F2C28D" d="M77.119,43.433v-1.422c-0.675,0.783-1.232,0.974-2.513,0.974c-0.006,0-0.012,0-0.018,0
				c-0.002,0-0.003,0-0.005,0c-0.001,0-0.003,0-0.004,0c-0.006,0-0.012,0-0.019,0c-1.279,0-1.837-0.191-2.512-0.974v1.422
				l2.534,2.42L77.119,43.433z"/>
			<path fill="#28324E" d="M70.948,47.191l-1.34,0.117l-0.569-2.33l0,0l-2.172,0.556c-1.283,0.422-2.151,1.621-2.151,2.972v3.521
				h0.806h2.33h0.649h3.816l-2.48-4.043L70.948,47.191z"/>
			<path fill="#28324E" d="M82.302,45.534l-2.173-0.556h0.001l-0.569,2.33l-1.34-0.117l1.11,0.793l-2.479,4.043h3.816h0.649h2.329
				h0.806v-3.521C84.452,47.155,83.585,45.956,82.302,45.534z"/>
			<polygon fill="#EDEDED" points="72.895,47.309 72.344,46.729 73.598,50.981 73.905,47.564 73.79,46.537 			"/>
			<polygon fill="#EDEDED" points="75.378,46.537 75.264,47.564 75.571,50.981 76.825,46.729 76.274,47.309 			"/>
			<polygon fill="#C6C6C6" points="72.344,46.729 72.895,47.309 73.79,46.537 74.584,45.853 72.05,43.433 71.489,43.833 			"/>
			<polygon fill="#C6C6C6" points="75.378,46.537 76.274,47.309 76.825,46.729 77.679,43.833 77.119,43.433 74.584,45.853 			"/>
			<polygon fill="#B6312F" points="74.584,45.853 73.79,46.537 73.905,47.564 75.264,47.564 75.378,46.537 			"/>
			<polygon fill="#CF4941" points="75.264,47.564 73.905,47.564 73.598,50.981 73.906,52.028 75.263,52.028 75.571,50.981 			"/>
			<path fill="#FFD2A1" d="M74.562,42.985c0.007,0,0.013,0,0.019,0c0.001,0,0.003,0,0.004,0c0.002,0,0.003,0,0.005,0
				c0.006,0,0.012,0,0.018,0c1.28,0,1.838-0.191,2.513-0.974c0.298-0.345,0.618-0.804,1.033-1.415
				c0.352-0.516,0.626-1.287,0.833-2.261c0.026,0.009,0.052,0.019,0.079,0.024c0.088,0.015,0.179,0.004,0.267-0.031
				c0.374-0.141,0.489-0.671,0.6-1.358c0.138-0.847,0.099-1.601-0.37-1.678c-0.256-0.042-0.519,0.126-0.729,0.427v-2.28
				c0-0.999-0.809-1.808-1.808-1.808h-4.88c-0.999,0-1.808,0.809-1.808,1.808v2.28c-0.21-0.301-0.473-0.469-0.729-0.427
				c-0.469,0.077-0.548,0.831-0.41,1.678c0.11,0.687,0.266,1.217,0.639,1.358c0.088,0.035,0.18,0.046,0.268,0.031
				c0.026-0.005,0.053-0.015,0.078-0.024c0.207,0.975,0.482,1.746,0.833,2.261c0.416,0.61,0.736,1.069,1.034,1.415
				C72.725,42.793,73.282,42.985,74.562,42.985z"/>
			<path fill="#3C3C3B" d="M70.337,35.72v-2.28c0-0.999,0.809-1.808,1.808-1.808h4.88c0.999,0,1.808,0.809,1.808,1.808v2.28
				c0.21-0.301,0.473-0.469,0.729-0.427l0.148-1.968c0.038-1.025-0.35-2.019-1.053-2.765c-1.017-1.079-2.034-1.428-4.067-1.428
				c-0.002,0-0.003,0-0.005,0c-0.001,0-0.003,0-0.004,0c-2.034,0-3.051,0.35-4.067,1.428c-0.703,0.746-1.091,1.739-1.053,2.765
				l0.148,1.968C69.864,35.25,70.127,35.418,70.337,35.72z"/>
			<polygon fill="#485678" points="78.221,47.191 79.561,47.309 80.13,44.979 80.129,44.979 77.679,43.833 77.679,43.833 
				76.825,46.729 75.571,50.981 75.263,52.028 75.665,52.028 76.432,52.028 76.852,52.028 79.331,47.985 			"/>
			<polygon fill="#485678" points="72.344,46.729 71.489,43.833 71.489,43.833 69.039,44.979 69.039,44.979 69.608,47.309 
				70.948,47.191 69.837,47.985 72.317,52.028 72.737,52.028 73.504,52.028 73.906,52.028 73.598,50.981 			"/>
		</g>
	</g>
	<g>
		<g>
			<path fill="#F2C28D" d="M97.854,50.004v-1.422c-0.676,0.783-1.233,0.974-2.513,0.974c-0.006,0-0.012,0-0.019,0
				c-0.001,0-0.002,0-0.004,0c-0.001,0-0.003,0-0.004,0c-0.006,0-0.013,0-0.019,0c-1.279,0-1.837-0.191-2.512-0.974v1.422
				l2.534,2.42L97.854,50.004z"/>
			<path fill="#61554E" d="M91.684,53.763l-1.34,0.117l-0.569-2.33l0,0l-2.173,0.555c-1.283,0.422-2.15,1.621-2.15,2.973V58.6h0.806
				h2.329h0.65h3.816l-2.48-4.043L91.684,53.763z"/>
			<path fill="#61554E" d="M103.037,52.105l-2.173-0.555l0,0l-0.569,2.33l-1.34-0.117l1.111,0.793L97.587,58.6h3.816h0.649h2.329
				h0.806v-3.521C105.188,53.727,104.32,52.528,103.037,52.105z"/>
			<polygon fill="#EDEDED" points="93.63,53.88 93.079,53.3 94.333,57.553 94.64,54.136 94.525,53.108 			"/>
			<polygon fill="#EDEDED" points="96.113,53.108 95.999,54.136 96.307,57.553 97.561,53.3 97.01,53.88 			"/>
			<polygon fill="#C6C6C6" points="93.079,53.3 93.63,53.88 94.525,53.108 95.319,52.425 92.785,50.004 92.225,50.405 			"/>
			<polygon fill="#C6C6C6" points="96.113,53.108 97.01,53.88 97.561,53.3 98.414,50.405 97.854,50.004 95.319,52.425 			"/>
			<polygon fill="#DE8E22" points="95.319,52.425 94.525,53.108 94.64,54.136 95.999,54.136 96.113,53.108 			"/>
			<polygon fill="#F89F26" points="95.999,54.136 94.64,54.136 94.333,57.553 94.642,58.6 95.997,58.6 96.307,57.553 			"/>
			<path fill="#FFD2A1" d="M95.297,49.557c0.006,0,0.013,0,0.019,0c0.001,0,0.003,0,0.004,0c0.002,0,0.003,0,0.004,0
				c0.007,0,0.013,0,0.019,0c1.279,0,1.837-0.191,2.513-0.974c0.298-0.345,0.618-0.804,1.033-1.415
				c0.352-0.516,0.626-1.287,0.833-2.262c0.026,0.009,0.052,0.02,0.079,0.024c0.088,0.015,0.179,0.003,0.267-0.031
				c0.374-0.141,0.489-0.671,0.6-1.358c0.137-0.847,0.099-1.601-0.371-1.678c-0.255-0.042-0.519,0.126-0.728,0.427v-2.28
				c0-1-0.809-1.808-1.809-1.808H92.88c-0.999,0-1.808,0.808-1.808,1.808v2.28c-0.21-0.301-0.473-0.469-0.729-0.427
				c-0.469,0.077-0.548,0.831-0.411,1.678c0.111,0.687,0.267,1.217,0.64,1.358c0.088,0.034,0.18,0.046,0.268,0.031
				c0.026-0.005,0.052-0.015,0.078-0.024c0.207,0.975,0.481,1.746,0.833,2.262c0.416,0.61,0.736,1.069,1.034,1.415
				C93.46,49.365,94.018,49.557,95.297,49.557z"/>
			<path fill="#F07934" d="M91.072,42.292v-2.28c0-1,0.809-1.808,1.808-1.808h4.879c1,0,1.809,0.808,1.809,1.808v2.28
				c0.209-0.301,0.473-0.469,0.728-0.427l0.149-1.968c0.038-1.026-0.35-2.019-1.053-2.765c-1.018-1.079-2.034-1.428-4.068-1.428
				c-0.001,0-0.002,0-0.004,0c-0.001,0-0.003,0-0.004,0c-2.034,0-3.051,0.35-4.068,1.428c-0.703,0.746-1.09,1.739-1.052,2.765
				l0.148,1.968C90.6,41.822,90.862,41.99,91.072,42.292z"/>
			<polygon fill="#A18D81" points="98.955,53.763 100.295,53.88 100.864,51.55 100.864,51.55 98.414,50.405 98.414,50.405 
				97.561,53.3 96.307,57.553 95.997,58.6 96.4,58.6 97.167,58.6 97.587,58.6 100.066,54.557 			"/>
			<polygon fill="#A18D81" points="93.079,53.3 92.225,50.405 92.225,50.405 89.774,51.55 89.774,51.55 90.344,53.88 91.684,53.763 
				90.572,54.557 93.053,58.6 93.472,58.6 94.238,58.6 94.642,58.6 94.333,57.553 			"/>
		</g>
	</g>
	<g>
		<path fill="#FAC48E" d="M72.901,67.287h-0.029c-0.797,0-1.444-0.646-1.444-1.444V54.159c0-0.798,0.647-1.444,1.444-1.444h0.029
			c0.798,0,1.444,0.646,1.444,1.444v11.683C74.346,66.64,73.699,67.287,72.901,67.287z"/>
		<path fill="#FAC48E" d="M75.819,67.287H75.79c-0.797,0-1.444-0.646-1.444-1.444v-5.381c0-0.798,0.647-1.444,1.444-1.444h0.029
			c0.798,0,1.444,0.646,1.444,1.444v5.381C77.264,66.64,76.617,67.287,75.819,67.287z"/>
		<path fill="#FAC48E" d="M73.745,74.236c-0.011,0.003-0.021,0.007-0.03,0.01c-0.833,0.281-1.683-0.246-1.927-1.131
			c-0.977-3.391-2.283-6.557-3.852-9.458c-0.398-0.76-0.136-1.698,0.604-2.143c0.009-0.005,0.018-0.011,0.027-0.017
			c0.738-0.444,1.699-0.192,2.127,0.612c1.661,3.04,3.051,6.352,4.1,9.894C75.062,72.936,74.577,73.956,73.745,74.236z"/>
		<path fill="#FAC48E" d="M78.737,67.287h-0.029c-0.798,0-1.444-0.646-1.444-1.444v-4.511c0-0.797,0.646-1.444,1.444-1.444h0.029
			c0.798,0,1.444,0.647,1.444,1.444v4.511C80.182,66.64,79.535,67.287,78.737,67.287z"/>
		<path fill="#FAC48E" d="M81.49,67.287h-0.025c-0.709,0-1.283-0.574-1.283-1.283v-4.006c0-0.708,0.574-1.283,1.283-1.283h0.025
			c0.709,0,1.283,0.574,1.283,1.283v4.006C82.773,66.712,82.199,67.287,81.49,67.287z"/>
		<path fill="#FFCF9F" d="M78.523,75.72h-2.846c-2.347,0-4.25-1.903-4.25-4.25v-3.476h11.346v3.476
			C82.773,73.817,80.87,75.72,78.523,75.72z"/>
		<rect x="73.113" y="72.183" fill="#FFCF9F" width="7.976" height="7.726"/>
		<path fill="#FFCF9F" d="M82.773,68.521v-2.584c0-0.708-0.574-1.283-1.283-1.283h-0.025c-0.709,0-1.283,0.574-1.283,1.283v-0.47
			c0-0.798-0.646-1.445-1.444-1.445h-0.029c-0.798,0-1.444,0.647-1.444,1.445v-0.436c0-0.797-0.646-1.444-1.444-1.444H75.79
			c-0.797,0-1.444,0.647-1.444,1.444c0-0.797-0.646-1.444-1.444-1.444h-0.029c-0.797,0-1.444,0.647-1.444,1.444v3.49H82.773z"/>
		<g>
			<rect x="72.306" y="78.941" fill="#28324E" width="9.591" height="8.055"/>
			<rect x="72.835" y="75.301" fill="#EDEDED" width="8.563" height="3.641"/>
			<circle fill="#FFFFFF" cx="80.602" cy="80.407" r="0.527"/>
			<circle fill="#FFFFFF" cx="80.612" cy="82.046" r="0.527"/>
			<circle fill="#FFFFFF" cx="80.623" cy="83.709" r="0.527"/>
		</g>
	</g>
</g>
<g>
	<g>
		<path fill="#F2C28D" d="M186.461,81.296v-2.22c-1.054,1.222-1.925,1.521-3.922,1.521c-0.01,0-0.019,0-0.028,0
			c-0.002,0-0.005,0-0.007,0s-0.004,0-0.007,0c-0.009,0-0.019,0-0.028,0c-1.997,0-2.868-0.299-3.922-1.521v2.22l3.957,3.779
			L186.461,81.296z"/>
		<path fill="#61554E" d="M176.827,87.164l-2.092,0.183l-0.889-3.638l-3.392,0.867c-2.003,0.659-3.357,2.531-3.357,4.641v5.498
			h1.258h3.637h1.015h5.958l-3.872-6.312L176.827,87.164z"/>
		<path fill="#61554E" d="M194.553,84.576l-3.392-0.867l-0.889,3.638l-2.092-0.183l1.734,1.239l-3.871,6.312h5.958h1.014h3.637
			h1.258v-5.498C197.91,87.107,196.556,85.235,194.553,84.576z"/>
		<polygon fill="#EDEDED" points="179.865,87.347 179.006,86.441 180.964,93.08 181.443,87.745 181.265,86.142 		"/>
		<polygon fill="#EDEDED" points="183.743,86.142 183.564,87.745 184.044,93.08 186.002,86.441 185.143,87.347 		"/>
		<polygon fill="#C6C6C6" points="179.865,87.347 181.265,86.142 182.504,85.075 178.547,81.296 177.673,81.921 179.006,86.441 		
			"/>
		<polygon fill="#C6C6C6" points="183.743,86.142 185.143,87.347 186.002,86.441 187.335,81.921 186.461,81.296 182.504,85.075 		
			"/>
		<polygon fill="#B6312F" points="182.504,85.075 181.265,86.142 181.443,87.745 183.564,87.745 183.743,86.142 		"/>
		<polygon fill="#CF4941" points="183.564,87.745 181.443,87.745 180.964,93.08 181.445,94.715 183.562,94.715 184.044,93.08 		"/>
		<path fill="#FFD2A1" d="M182.469,80.597c0.01,0,0.02,0,0.028,0c0.003,0,0.005,0,0.007,0s0.005,0,0.007,0c0.01,0,0.019,0,0.028,0
			c1.997,0,2.868-0.299,3.922-1.521c0.465-0.539,0.965-1.256,1.614-2.209c0.548-0.805,0.978-2.008,1.301-3.53
			c0.04,0.014,0.08,0.03,0.122,0.038c0.137,0.024,0.28,0.006,0.417-0.048c0.583-0.22,0.763-1.048,0.936-2.12
			c0.215-1.322,0.154-2.5-0.578-2.619c-0.399-0.065-0.81,0.197-1.138,0.667v-3.56c0-0.186-0.021-0.367-0.055-0.543
			c-3.975,0.048-8.316,0.654-11.831-1.87c-0.821,0.493-1.376,1.384-1.376,2.413v3.56c-0.327-0.47-0.738-0.732-1.138-0.667
			c-0.732,0.12-0.855,1.297-0.641,2.619c0.172,1.072,0.415,1.9,0.998,2.12c0.137,0.054,0.28,0.072,0.417,0.048
			c0.042-0.008,0.082-0.023,0.123-0.038c0.323,1.522,0.752,2.726,1.3,3.53c0.649,0.953,1.149,1.67,1.614,2.209
			C179.601,80.298,180.472,80.597,182.469,80.597z"/>
		<path fill="#F07934" d="M175.873,69.254v-3.56c0-1.029,0.555-1.919,1.376-2.413c3.515,2.524,7.856,1.917,11.831,1.87
			c0.034,0.176,0.055,0.357,0.055,0.543v3.56c0.328-0.47,0.738-0.732,1.138-0.667l0.232-3.072c0.059-1.602-0.546-3.152-1.644-4.316
			c-1.588-1.684-3.176-2.23-6.351-2.23c-0.002,0-0.005,0-0.007,0s-0.004,0-0.007,0c-3.175,0-4.763,0.546-6.351,2.23
			c-1.098,1.164-1.702,2.715-1.643,4.316l0.231,3.072C175.135,68.522,175.546,68.784,175.873,69.254z"/>
		<polygon fill="#A18D81" points="188.181,87.164 190.272,87.347 191.161,83.709 187.335,81.921 186.002,86.441 184.044,93.08 
			183.562,94.715 184.191,94.715 185.388,94.715 186.044,94.715 189.915,88.403 		"/>
		<polygon fill="#A18D81" points="179.006,86.441 177.673,81.921 173.847,83.709 173.847,83.709 173.847,83.709 174.735,87.347 
			176.827,87.164 175.093,88.403 178.965,94.715 179.62,94.715 180.816,94.715 181.445,94.715 180.964,93.08 		"/>
	</g>
	<g>
		<path fill="#F2C28D" d="M152.827,77.162c0.2,1.223,0.475,2.172,1.143,2.427c0.161,0.06,0.321,0.08,0.481,0.053
			c0.003,0,0.005-0.001,0.008-0.002c-0.672-2.683-0.896-5.479-0.896-5.479C152.727,74.301,152.586,75.645,152.827,77.162z"/>
		<path fill="#F2C28D" d="M155.728,83.051c0.107,0.214,0.228,0.408,0.348,0.588c0.662,0.973,1.188,1.722,1.675,2.311l-0.15-2.369
			C156.971,83.434,156.346,83.265,155.728,83.051z"/>
		<path fill="#F2C28D" d="M170.935,79.589c0.668-0.255,0.875-1.204,1.076-2.427c0.24-1.517,0.174-2.861-0.662-3.001
			c0,0-0.28,2.909-0.883,5.48C170.618,79.667,170.782,79.647,170.935,79.589z"/>
		<path fill="#F2C28D" d="M167.15,85.962c0.488-0.591,1.012-1.345,1.679-2.323c0.134-0.193,0.261-0.414,0.381-0.648
			c-0.64,0.186-1.275,0.344-1.907,0.483L167.15,85.962z"/>
		<path fill="#FFD2A1" d="M167.103,86.757l0.048-0.795l0.152-2.488c-3.35,0.741-6.592,0.827-9.703,0.106l0.15,2.369l0.051,0.808
			H167.103z"/>
		<path fill="#28324E" d="M176.245,92.463l-6.319-2.562l0.034,0.031h-15.055l-6.242,2.531c-2.293,0.755-3.843,2.896-3.843,5.312
			v6.293h1.439h4.162h1.161h6.342h0.478h14.923h1.161h4.162h1.439v-6.293C180.088,95.359,178.538,93.218,176.245,92.463z"/>
		<path fill="#3C3C3B" d="M167.303,83.474c0.632-0.14,1.268-0.298,1.907-0.483c0.518-0.679,0.933-1.966,1.256-3.349
			c0.603-2.571,0.883-5.48,0.883-5.48l-0.001-0.023l0.264-3.492c0.068-1.833-0.624-3.608-1.881-4.941
			c-1.817-1.927-3.634-2.552-7.269-2.552c-0.003,0-0.005,0-0.008,0c-0.002,0-0.005,0-0.007,0c-3.635,0-5.452,0.625-7.27,2.552
			c-1.257,1.333-1.949,3.107-1.881,4.941l0.266,3.514v0.002c0,0,0.225,2.796,0.896,5.479c0.316,1.264,0.73,2.502,1.269,3.411
			c0.618,0.214,1.243,0.383,1.872,0.529C160.711,84.301,163.953,84.215,167.303,83.474z"/>
		<polygon fill="#EDEDED" points="167.168,87.426 167.168,86.757 167.103,86.757 157.801,86.757 157.765,86.757 157.765,87.426 		
			"/>
		<polygon fill="#485678" points="169.96,89.932 169.926,89.9 167.289,87.426 167.168,87.426 157.765,87.426 157.616,87.426 
			154.894,89.932 154.905,89.932 		"/>
	</g>
</g>
<g opacity="0.1">
	<path d="M170.733,32.499l1.759-1.128c0.047-0.03,0.085-0.067,0.12-0.107l6.101,8.788c0.287,0.414,0.171,0.983-0.266,1.263
		l-1.161,0.745c-0.438,0.28-1.003,0.148-1.259-0.286l-5.441-9.21C170.637,32.549,170.687,32.529,170.733,32.499z"/>
	<path d="M169.85,32.199l-0.431-0.672c0.483-0.178,0.956-0.409,1.407-0.698c0.479-0.307,0.907-0.663,1.287-1.055l0.442,0.69
		c0.139,0.215,0.109,0.486-0.05,0.67c-0.034,0.04-0.073,0.077-0.12,0.107l-1.759,1.128c-0.047,0.03-0.097,0.049-0.147,0.064
		C170.246,32.5,169.987,32.414,169.85,32.199z"/>
	<path d="M171.962,29.622c2.281-2.353,2.738-6.053,0.895-8.928c-2.15-3.354-6.629-4.333-9.983-2.183s-4.333,6.63-2.183,9.984
		c1.861,2.903,5.467,4.025,8.577,2.88c0.483-0.178,0.956-0.409,1.407-0.698C171.153,30.37,171.582,30.014,171.962,29.622z
		 M169.693,29.146c-2.511,1.609-5.862,0.877-7.472-1.633c-1.609-2.51-0.877-5.861,1.634-7.471c2.51-1.609,5.86-0.877,7.471,1.633
		C172.936,24.186,172.203,27.537,169.693,29.146z"/>
</g>
<g opacity="0.1">
	<path d="M15.947,99.614l1.381-0.885c0.037-0.024,0.067-0.054,0.095-0.085l4.788,6.898c0.226,0.324,0.134,0.771-0.209,0.991
		l-0.911,0.584c-0.343,0.22-0.787,0.117-0.988-0.224l-4.271-7.229C15.872,99.653,15.911,99.638,15.947,99.614z"/>
	<path d="M15.254,99.379l-0.338-0.527c0.379-0.14,0.75-0.321,1.104-0.548c0.376-0.241,0.712-0.521,1.011-0.829l0.347,0.542
		c0.108,0.169,0.086,0.382-0.039,0.526c-0.027,0.031-0.058,0.061-0.094,0.084l-1.381,0.885c-0.037,0.024-0.076,0.039-0.116,0.051
		C15.565,99.615,15.362,99.548,15.254,99.379z"/>
	<path d="M16.912,97.356c1.79-1.848,2.149-4.752,0.702-7.008c-1.688-2.633-5.203-3.401-7.836-1.714
		c-2.633,1.688-3.401,5.204-1.713,7.837c1.461,2.278,4.29,3.159,6.731,2.261c0.38-0.14,0.75-0.32,1.104-0.548
		C16.277,97.943,16.614,97.664,16.912,97.356z M15.131,96.982c-1.97,1.264-4.601,0.688-5.864-1.281
		c-1.263-1.97-0.688-4.601,1.282-5.864c1.97-1.264,4.601-0.688,5.864,1.282C17.676,93.089,17.101,95.72,15.131,96.982z"/>
</g>
<g opacity="0.1">
	<path d="M70.66,115.044l1.76-1.128c0.047-0.03,0.085-0.067,0.12-0.107l6.101,8.788c0.287,0.414,0.171,0.983-0.267,1.263
		l-1.161,0.745c-0.437,0.28-1.003,0.148-1.259-0.285l-5.44-9.211C70.564,115.094,70.614,115.074,70.66,115.044z"/>
	<path d="M69.777,114.744l-0.432-0.673c0.484-0.178,0.956-0.408,1.407-0.698c0.479-0.307,0.908-0.663,1.288-1.055l0.442,0.689
		c0.138,0.215,0.109,0.487-0.05,0.671c-0.035,0.04-0.073,0.077-0.12,0.106l-1.759,1.129c-0.047,0.029-0.097,0.049-0.147,0.063
		C70.174,115.046,69.915,114.959,69.777,114.744z"/>
	<path d="M71.89,112.167c2.28-2.354,2.738-6.054,0.895-8.929c-2.15-3.354-6.629-4.333-9.983-2.183
		c-3.354,2.151-4.334,6.63-2.183,9.984c1.861,2.902,5.466,4.024,8.577,2.88c0.483-0.178,0.955-0.408,1.406-0.697
		C71.081,112.915,71.51,112.559,71.89,112.167z M69.62,111.691c-2.51,1.609-5.861,0.877-7.471-1.633
		c-1.609-2.511-0.877-5.862,1.633-7.472s5.861-0.877,7.471,1.634C72.862,106.73,72.13,110.082,69.62,111.691z"/>
</g>
<g opacity="0.1">
	<path d="M86.825,94.315l0.588-0.377c0.016-0.01,0.028-0.022,0.04-0.036l2.041,2.939c0.096,0.139,0.057,0.329-0.089,0.423
		l-0.389,0.249c-0.146,0.094-0.336,0.05-0.421-0.096l-1.82-3.081C86.792,94.332,86.81,94.326,86.825,94.315z"/>
	<path d="M86.529,94.216l-0.145-0.226c0.162-0.059,0.32-0.137,0.471-0.233c0.16-0.103,0.304-0.222,0.431-0.353l0.148,0.23
		c0.046,0.072,0.036,0.163-0.017,0.225c-0.012,0.013-0.024,0.025-0.04,0.035l-0.589,0.378c-0.016,0.01-0.032,0.017-0.049,0.021
		C86.662,94.316,86.575,94.287,86.529,94.216z"/>
	<path d="M87.236,93.354c0.763-0.787,0.915-2.024,0.299-2.986c-0.72-1.122-2.218-1.449-3.34-0.73
		c-1.121,0.72-1.449,2.218-0.729,3.34c0.622,0.971,1.828,1.347,2.869,0.964c0.161-0.06,0.319-0.137,0.47-0.233
		C86.966,93.604,87.108,93.484,87.236,93.354z M86.477,93.194c-0.839,0.538-1.96,0.294-2.499-0.546
		c-0.538-0.84-0.293-1.961,0.547-2.499c0.839-0.538,1.96-0.293,2.498,0.546C87.562,91.535,87.316,92.656,86.477,93.194z"/>
</g>
<g opacity="0.1">
	<path d="M90.536,66.454l0.767-0.492c0.021-0.013,0.037-0.029,0.052-0.046l2.658,3.829c0.126,0.18,0.075,0.428-0.115,0.55
		l-0.506,0.324c-0.19,0.122-0.438,0.064-0.549-0.124l-2.371-4.014C90.494,66.475,90.516,66.466,90.536,66.454z"/>
	<path d="M90.151,66.323l-0.188-0.293c0.21-0.078,0.416-0.178,0.612-0.304c0.209-0.134,0.396-0.289,0.562-0.46l0.192,0.301
		c0.061,0.094,0.048,0.212-0.021,0.292c-0.015,0.018-0.032,0.034-0.052,0.047l-0.767,0.491c-0.021,0.013-0.043,0.021-0.064,0.028
		C90.324,66.454,90.211,66.417,90.151,66.323z"/>
	<path d="M91.071,65.2c0.994-1.025,1.193-2.637,0.39-3.89c-0.937-1.461-2.888-1.888-4.35-0.951
		c-1.462,0.938-1.889,2.889-0.951,4.351c0.812,1.265,2.382,1.753,3.737,1.255c0.211-0.078,0.416-0.178,0.613-0.304
		C90.72,65.526,90.906,65.371,91.071,65.2z M90.083,64.993c-1.094,0.701-2.555,0.382-3.256-0.711
		c-0.701-1.094-0.382-2.554,0.712-3.255c1.094-0.702,2.554-0.382,3.255,0.711S91.177,64.292,90.083,64.993z"/>
</g>
<g opacity="0.1">
	<path d="M118.515,30.202l0.523-0.336c0.014-0.009,0.025-0.02,0.035-0.032l1.816,2.616c0.086,0.124,0.052,0.293-0.078,0.376
		l-0.347,0.222c-0.13,0.083-0.298,0.044-0.374-0.085l-1.62-2.742C118.485,30.217,118.5,30.211,118.515,30.202z"/>
	<path d="M118.251,30.113l-0.128-0.2c0.144-0.053,0.284-0.122,0.419-0.208c0.143-0.091,0.271-0.197,0.383-0.314l0.132,0.206
		c0.041,0.064,0.033,0.145-0.015,0.199c-0.01,0.012-0.021,0.023-0.035,0.032l-0.524,0.336c-0.014,0.009-0.028,0.015-0.044,0.02
		C118.369,30.203,118.292,30.177,118.251,30.113z"/>
	<path d="M118.88,29.346c0.68-0.701,0.815-1.802,0.267-2.659c-0.641-0.999-1.974-1.29-2.973-0.649
		c-0.998,0.64-1.29,1.974-0.649,2.972c0.554,0.865,1.627,1.199,2.554,0.858c0.144-0.053,0.284-0.122,0.419-0.208
		C118.64,29.568,118.767,29.462,118.88,29.346z M118.204,29.204c-0.747,0.479-1.745,0.261-2.224-0.486
		c-0.479-0.748-0.262-1.745,0.486-2.225c0.747-0.479,1.745-0.261,2.224,0.486C119.17,27.727,118.952,28.725,118.204,29.204z"/>
</g>
<g opacity="0.1">
	<path d="M138.67,18.327l0.666-0.427c0.018-0.012,0.032-0.025,0.045-0.041l2.311,3.328c0.108,0.156,0.064,0.372-0.101,0.478
		l-0.44,0.282c-0.165,0.106-0.379,0.056-0.477-0.108l-2.061-3.488C138.633,18.346,138.651,18.339,138.67,18.327z"/>
	<path d="M138.335,18.214l-0.163-0.255c0.184-0.067,0.362-0.155,0.532-0.264c0.182-0.116,0.345-0.251,0.488-0.399l0.167,0.261
		c0.053,0.081,0.042,0.184-0.019,0.254c-0.013,0.015-0.027,0.029-0.045,0.041l-0.667,0.427c-0.018,0.012-0.036,0.019-0.056,0.024
		C138.485,18.328,138.387,18.295,138.335,18.214z"/>
	<path d="M139.135,17.238c0.863-0.891,1.037-2.292,0.339-3.38c-0.814-1.271-2.51-1.641-3.78-0.827s-1.641,2.51-0.826,3.781
		c0.705,1.099,2.069,1.523,3.247,1.09c0.184-0.067,0.362-0.155,0.533-0.264C138.829,17.521,138.991,17.387,139.135,17.238z
		 M138.275,17.058c-0.95,0.61-2.22,0.332-2.829-0.618s-0.332-2.219,0.619-2.829c0.95-0.609,2.219-0.332,2.828,0.619
		S139.226,16.448,138.275,17.058z"/>
</g>
<g opacity="0.1">
	<path d="M109.741,133.015l1.092-0.7c0.028-0.018,0.053-0.041,0.074-0.066l3.786,5.454c0.178,0.257,0.105,0.61-0.165,0.784
		l-0.721,0.462c-0.271,0.174-0.622,0.092-0.781-0.177l-3.377-5.717C109.681,133.046,109.712,133.033,109.741,133.015z"/>
	<path d="M109.192,132.829l-0.268-0.417c0.301-0.11,0.594-0.254,0.874-0.434c0.297-0.19,0.563-0.412,0.799-0.655l0.274,0.429
		c0.086,0.133,0.067,0.302-0.031,0.416c-0.021,0.024-0.045,0.048-0.074,0.066l-1.092,0.7c-0.028,0.019-0.06,0.03-0.091,0.039
		C109.439,133.016,109.278,132.962,109.192,132.829z"/>
	<path d="M110.504,131.229c1.415-1.46,1.699-3.757,0.555-5.541c-1.335-2.081-4.114-2.689-6.195-1.354
		c-2.082,1.335-2.689,4.114-1.354,6.196c1.155,1.802,3.393,2.498,5.322,1.787c0.301-0.11,0.594-0.253,0.874-0.433
		C110.002,131.694,110.269,131.473,110.504,131.229z M109.096,130.935c-1.558,0.999-3.638,0.544-4.637-1.014
		s-0.544-3.638,1.014-4.637s3.638-0.544,4.636,1.014C111.107,127.855,110.653,129.936,109.096,130.935z"/>
</g>
<g opacity="0.1">
	<path d="M102.25,33.525l0.931-0.597c0.025-0.016,0.045-0.036,0.063-0.057l3.229,4.652c0.151,0.219,0.09,0.52-0.141,0.668
		l-0.615,0.394c-0.23,0.148-0.53,0.079-0.666-0.151l-2.88-4.875C102.198,33.552,102.225,33.542,102.25,33.525z"/>
	<path d="M101.782,33.367l-0.229-0.356c0.256-0.094,0.506-0.216,0.745-0.37c0.254-0.163,0.48-0.351,0.682-0.559l0.234,0.365
		c0.072,0.114,0.058,0.258-0.026,0.355c-0.019,0.021-0.039,0.041-0.063,0.057l-0.932,0.597c-0.024,0.016-0.051,0.026-0.078,0.034
		C101.992,33.526,101.854,33.48,101.782,33.367z"/>
	<path d="M102.9,32.002c1.207-1.246,1.449-3.204,0.474-4.726c-1.139-1.776-3.51-2.294-5.285-1.155
		c-1.775,1.138-2.293,3.509-1.155,5.285c0.985,1.536,2.894,2.13,4.54,1.524c0.256-0.094,0.506-0.216,0.745-0.37
		C102.473,32.398,102.699,32.21,102.9,32.002z M101.699,31.751c-1.329,0.852-3.103,0.464-3.955-0.865
		c-0.852-1.328-0.464-3.103,0.864-3.954c1.329-0.852,3.103-0.464,3.955,0.864C103.415,29.125,103.027,30.899,101.699,31.751z"/>
</g>
<g opacity="0.1">
	<path d="M149.562,117.848v4.465h4.968v-4.465h-0.258h-4.436H149.562z M153.871,120.59c-0.15,0.001-0.273-0.12-0.274-0.271
		c-0.001-0.15,0.12-0.273,0.271-0.274c0.15-0.001,0.273,0.12,0.274,0.271C154.144,120.466,154.022,120.589,153.871,120.59z
		 M153.865,119.729c-0.15,0.001-0.273-0.121-0.274-0.271c-0.001-0.151,0.12-0.274,0.271-0.275c0.15-0.001,0.273,0.121,0.274,0.271
		C154.138,119.604,154.017,119.728,153.865,119.729z M153.856,118.334c0.151-0.001,0.274,0.12,0.275,0.271
		c0.001,0.151-0.121,0.274-0.271,0.275s-0.274-0.121-0.274-0.271C153.585,118.457,153.706,118.335,153.856,118.334z"/>
	<polygon points="154.271,117.573 154.271,115.962 149.836,115.962 149.836,117.573 150.106,117.573 150.106,116.231 
		154.001,116.231 154.001,117.573 	"/>
	<path d="M155.117,114.287v-4.906c0-0.44-0.358-0.799-0.8-0.799l-0.036,0.002c-0.21,0.006-0.397,0.09-0.536,0.225
		c-0.101-0.377-0.447-0.655-0.868-0.655c-0.246,0-0.47,0.101-0.63,0.264c-0.078-0.406-0.439-0.715-0.882-0.715
		c-0.237,0-0.454,0.095-0.613,0.248v-2.629c0-0.487-0.396-0.883-0.897-0.883c-0.487,0-0.884,0.396-0.884,0.883v4.289
		c-0.041-0.079-0.083-0.157-0.126-0.234c-0.179-0.336-0.534-0.533-0.909-0.494c-0.138,0.014-0.266,0.056-0.396,0.134
		c-0.043,0.025-0.081,0.057-0.118,0.088c-0.353,0.292-0.455,0.797-0.243,1.201c0.736,1.362,1.351,2.824,1.82,4.324
		c0.037,0.255,0.115,0.498,0.241,0.745c0.059,0.111,0.129,0.217,0.206,0.317h0.351c-0.126-0.135-0.233-0.283-0.327-0.463
		c-0.103-0.198-0.171-0.413-0.208-0.659c-0.48-1.537-1.101-3.016-1.845-4.392c-0.154-0.296-0.082-0.652,0.177-0.867
		c0.027-0.022,0.055-0.045,0.101-0.072c0.08-0.049,0.171-0.078,0.269-0.088c0.266-0.025,0.515,0.109,0.645,0.354
		c0.13,0.237,0.255,0.479,0.378,0.723l0.256,0.506v-5.411c0-0.338,0.275-0.613,0.628-0.613c0.338,0,0.613,0.275,0.613,0.613v3.264
		h0.27c0-0.338,0.275-0.612,0.629-0.612c0.338,0,0.612,0.274,0.612,0.612v0.451h0.271c0-0.338,0.274-0.613,0.628-0.613
		c0.338,0,0.613,0.275,0.613,0.613v0.345h0.27c0-0.287,0.227-0.52,0.511-0.527c0.011,0,0.02-0.001,0.032-0.002
		c0.292,0,0.529,0.237,0.529,0.529v4.906c0,0.53-0.201,1.025-0.558,1.404h0.355C154.948,115.292,155.117,114.804,155.117,114.287z"
		/>
</g>
<g opacity="0.1">
	<path d="M156.233,52.402v4.465h4.967v-4.465h-0.258h-4.435H156.233z M160.543,55.145c-0.151,0.001-0.274-0.121-0.275-0.271
		s0.121-0.274,0.271-0.275s0.274,0.121,0.275,0.271C160.814,55.021,160.693,55.144,160.543,55.145z M160.537,54.283
		c-0.151,0.001-0.274-0.121-0.274-0.271c-0.001-0.151,0.12-0.274,0.271-0.275c0.151-0.001,0.274,0.121,0.275,0.271
		C160.81,54.159,160.688,54.282,160.537,54.283z M160.528,52.889c0.15-0.001,0.273,0.121,0.274,0.271s-0.12,0.274-0.271,0.274
		c-0.15,0.001-0.273-0.12-0.274-0.271S160.377,52.89,160.528,52.889z"/>
	<polygon points="160.942,52.128 160.942,50.517 156.508,50.517 156.508,52.128 156.777,52.128 156.777,50.787 160.673,50.787 
		160.673,52.128 	"/>
	<path d="M161.788,48.842v-4.906c0-0.441-0.358-0.8-0.799-0.8l-0.036,0.002c-0.21,0.006-0.398,0.091-0.537,0.225
		c-0.101-0.377-0.447-0.655-0.868-0.655c-0.246,0-0.469,0.101-0.629,0.264c-0.079-0.407-0.439-0.715-0.882-0.715
		c-0.238,0-0.454,0.095-0.613,0.248v-2.629c0-0.487-0.396-0.883-0.898-0.883c-0.487,0-0.883,0.396-0.883,0.883v4.289
		c-0.042-0.079-0.084-0.157-0.126-0.234c-0.179-0.336-0.535-0.534-0.91-0.495c-0.138,0.014-0.266,0.056-0.395,0.134
		c-0.043,0.025-0.081,0.056-0.119,0.087c-0.353,0.292-0.455,0.797-0.242,1.202c0.736,1.362,1.35,2.824,1.819,4.325
		c0.037,0.254,0.115,0.498,0.241,0.744c0.06,0.112,0.13,0.217,0.206,0.318h0.352c-0.126-0.134-0.234-0.284-0.327-0.462
		c-0.103-0.199-0.171-0.414-0.209-0.659c-0.479-1.538-1.101-3.016-1.844-4.392c-0.155-0.296-0.083-0.653,0.177-0.868
		c0.027-0.022,0.055-0.045,0.1-0.072c0.081-0.048,0.171-0.079,0.269-0.088c0.267-0.025,0.515,0.11,0.645,0.354
		c0.13,0.237,0.256,0.479,0.379,0.723l0.255,0.506v-5.411c0-0.338,0.275-0.613,0.628-0.613c0.339,0,0.613,0.275,0.613,0.613v3.264
		h0.271c0-0.338,0.274-0.613,0.628-0.613c0.338,0,0.613,0.275,0.613,0.613v0.451h0.27c0-0.338,0.275-0.613,0.629-0.613
		c0.338,0,0.612,0.275,0.612,0.613v0.345h0.271c0-0.288,0.226-0.52,0.511-0.528c0.01,0,0.02-0.001,0.032-0.002
		c0.292,0,0.529,0.238,0.529,0.53v4.906c0,0.53-0.202,1.025-0.558,1.404h0.354C161.619,49.847,161.788,49.359,161.788,48.842z"/>
</g>
<g opacity="0.1">
	<path d="M111.797,56.022v4.465h4.967v-4.465h-0.258h-4.435H111.797z M116.106,58.765c-0.151,0.001-0.274-0.121-0.275-0.271
		s0.121-0.274,0.271-0.275s0.273,0.121,0.274,0.271S116.257,58.764,116.106,58.765z M116.101,57.903
		c-0.15,0.001-0.274-0.121-0.274-0.271c-0.001-0.151,0.12-0.274,0.271-0.275c0.151-0.001,0.274,0.121,0.275,0.271
		S116.251,57.902,116.101,57.903z M116.092,56.508c0.15-0.001,0.273,0.121,0.274,0.271s-0.12,0.274-0.271,0.275
		c-0.15,0.001-0.273-0.121-0.274-0.271S115.94,56.509,116.092,56.508z"/>
	<polygon points="116.506,55.748 116.506,54.137 112.071,54.137 112.071,55.748 112.341,55.748 112.341,54.407 116.236,54.407 
		116.236,55.748 	"/>
	<path d="M117.352,52.462v-4.906c0-0.441-0.358-0.799-0.799-0.799l-0.036,0.001c-0.21,0.006-0.398,0.091-0.537,0.225
		c-0.101-0.376-0.447-0.655-0.868-0.655c-0.246,0-0.469,0.101-0.629,0.264c-0.079-0.407-0.439-0.715-0.882-0.715
		c-0.238,0-0.454,0.095-0.613,0.249v-2.629c0-0.487-0.396-0.883-0.898-0.883c-0.487,0-0.883,0.396-0.883,0.883v4.289
		c-0.042-0.079-0.084-0.157-0.126-0.234c-0.179-0.336-0.535-0.533-0.91-0.494c-0.138,0.014-0.266,0.056-0.395,0.134
		c-0.043,0.026-0.081,0.056-0.119,0.087c-0.353,0.292-0.455,0.797-0.242,1.202c0.736,1.362,1.35,2.824,1.819,4.324
		c0.037,0.254,0.115,0.498,0.241,0.745c0.06,0.111,0.13,0.217,0.206,0.318h0.352c-0.126-0.135-0.234-0.284-0.327-0.463
		c-0.103-0.199-0.171-0.414-0.209-0.659c-0.479-1.538-1.1-3.016-1.844-4.392c-0.155-0.296-0.083-0.652,0.177-0.867
		c0.026-0.023,0.055-0.045,0.1-0.073c0.081-0.048,0.171-0.078,0.269-0.088c0.267-0.025,0.515,0.11,0.645,0.354
		c0.13,0.238,0.255,0.479,0.378,0.723l0.256,0.506v-5.412c0-0.338,0.275-0.613,0.628-0.613c0.339,0,0.613,0.275,0.613,0.613v3.264
		h0.271c0-0.338,0.274-0.613,0.628-0.613c0.338,0,0.613,0.275,0.613,0.613v0.451h0.27c0-0.338,0.275-0.613,0.628-0.613
		c0.339,0,0.613,0.275,0.613,0.613v0.345h0.271c0-0.288,0.226-0.52,0.511-0.528c0.01,0,0.02-0.001,0.032-0.002
		c0.292,0,0.529,0.238,0.529,0.53v4.906c0,0.53-0.202,1.025-0.559,1.405h0.355C117.183,53.467,117.352,52.979,117.352,52.462z"/>
</g>
<g opacity="0.1">
	<path d="M60.329,69.031v3.191h3.549v-3.191h-0.184h-3.17H60.329z M63.408,70.991c-0.107,0-0.195-0.086-0.196-0.194
		c-0.001-0.107,0.086-0.195,0.194-0.196c0.107,0,0.195,0.086,0.196,0.194C63.603,70.902,63.517,70.99,63.408,70.991z M63.404,70.375
		c-0.107,0-0.195-0.086-0.196-0.194c-0.001-0.107,0.086-0.195,0.194-0.196c0.107,0,0.195,0.086,0.196,0.194
		C63.599,70.286,63.513,70.374,63.404,70.375z M63.398,69.378c0.107-0.001,0.195,0.086,0.196,0.194c0,0.107-0.086,0.195-0.194,0.196
		c-0.107,0-0.195-0.086-0.196-0.194S63.29,69.379,63.398,69.378z"/>
	<polygon points="63.694,68.835 63.694,67.684 60.524,67.684 60.524,68.835 60.718,68.835 60.718,67.876 63.501,67.876 
		63.501,68.835 	"/>
	<path d="M64.299,66.487v-3.506c0-0.315-0.257-0.571-0.571-0.571l-0.026,0.001c-0.149,0.004-0.284,0.065-0.383,0.161
		c-0.072-0.269-0.32-0.468-0.621-0.468c-0.176,0-0.335,0.072-0.449,0.188c-0.057-0.291-0.314-0.511-0.631-0.511
		c-0.17,0-0.324,0.068-0.438,0.177V60.08c0-0.348-0.283-0.631-0.642-0.631c-0.349,0-0.632,0.283-0.632,0.631v3.064
		c-0.029-0.056-0.06-0.112-0.09-0.167c-0.127-0.24-0.382-0.381-0.649-0.354c-0.099,0.01-0.19,0.04-0.282,0.096
		c-0.031,0.019-0.059,0.04-0.085,0.062c-0.252,0.209-0.325,0.57-0.174,0.859c0.526,0.973,0.965,2.018,1.301,3.09
		c0.026,0.182,0.082,0.355,0.172,0.532c0.042,0.08,0.093,0.155,0.147,0.227h0.251c-0.09-0.096-0.167-0.203-0.233-0.331
		c-0.073-0.142-0.122-0.296-0.149-0.471c-0.343-1.099-0.786-2.155-1.318-3.138c-0.11-0.211-0.059-0.466,0.127-0.62
		c0.02-0.016,0.039-0.032,0.071-0.052c0.058-0.035,0.122-0.056,0.192-0.063c0.189-0.018,0.367,0.079,0.46,0.253
		c0.093,0.169,0.183,0.342,0.271,0.516l0.183,0.362V60.08c0-0.242,0.196-0.438,0.449-0.438c0.241,0,0.438,0.197,0.438,0.438v2.332
		h0.193c0-0.241,0.196-0.438,0.448-0.438c0.242,0,0.438,0.197,0.438,0.438v0.322h0.193c0-0.241,0.196-0.438,0.448-0.438
		c0.242,0,0.438,0.197,0.438,0.438v0.247h0.193c0-0.206,0.161-0.371,0.364-0.377c0.008,0,0.015-0.001,0.023-0.001
		c0.209,0,0.378,0.17,0.378,0.378v3.506c0,0.379-0.144,0.732-0.398,1.003h0.254C64.178,67.205,64.299,66.856,64.299,66.487z"/>
</g>
<g opacity="0.1">
	<path d="M14.031,66.552v5.263h5.854v-5.263h-0.304h-5.228H14.031z M19.111,69.784c-0.179,0.001-0.323-0.142-0.324-0.32
		s0.142-0.323,0.319-0.324c0.178-0.001,0.323,0.142,0.324,0.32S19.289,69.783,19.111,69.784z M19.104,68.769
		c-0.178,0.001-0.323-0.142-0.324-0.319c-0.001-0.178,0.143-0.323,0.32-0.324s0.322,0.142,0.323,0.32
		C19.426,68.623,19.282,68.768,19.104,68.769z M19.094,67.125c0.178-0.001,0.323,0.142,0.324,0.32s-0.143,0.323-0.32,0.324
		c-0.178,0.001-0.322-0.142-0.323-0.32C18.772,67.271,18.916,67.126,19.094,67.125z"/>
	<polygon points="19.582,66.229 19.582,64.33 14.354,64.33 14.354,66.229 14.673,66.229 14.673,64.647 19.264,64.647 19.264,66.229 
			"/>
	<path d="M20.579,62.355v-5.783c0-0.52-0.423-0.942-0.942-0.942l-0.042,0.002c-0.248,0.007-0.469,0.107-0.633,0.265
		c-0.118-0.444-0.527-0.772-1.023-0.772c-0.29,0-0.553,0.119-0.741,0.311c-0.093-0.479-0.519-0.842-1.04-0.842
		c-0.28,0-0.535,0.111-0.723,0.292v-3.099c0-0.574-0.467-1.041-1.059-1.041c-0.574,0-1.041,0.467-1.041,1.041v5.055
		c-0.049-0.093-0.099-0.185-0.148-0.276c-0.211-0.396-0.631-0.629-1.072-0.583c-0.162,0.017-0.312,0.066-0.466,0.158
		c-0.051,0.031-0.096,0.067-0.14,0.104c-0.416,0.344-0.536,0.939-0.286,1.417c0.868,1.605,1.592,3.328,2.145,5.097
		c0.045,0.3,0.136,0.586,0.285,0.877c0.069,0.132,0.152,0.255,0.242,0.375h0.414c-0.148-0.159-0.275-0.334-0.386-0.545
		c-0.12-0.235-0.201-0.488-0.246-0.777c-0.565-1.812-1.296-3.555-2.173-5.176c-0.183-0.349-0.098-0.769,0.208-1.022
		c0.032-0.027,0.064-0.053,0.118-0.085c0.095-0.057,0.201-0.092,0.316-0.104c0.313-0.03,0.606,0.129,0.76,0.417
		c0.153,0.28,0.301,0.564,0.446,0.852l0.301,0.597v-6.378c0-0.398,0.324-0.723,0.74-0.723c0.398,0,0.723,0.324,0.723,0.723v3.847
		h0.318c0-0.398,0.324-0.723,0.74-0.723c0.398,0,0.723,0.324,0.723,0.723v0.531h0.318c0-0.398,0.324-0.722,0.74-0.722
		c0.398,0,0.723,0.324,0.723,0.722v0.407h0.318c0-0.339,0.267-0.612,0.603-0.622c0.012,0,0.022-0.001,0.037-0.002
		c0.345,0,0.624,0.28,0.624,0.624v5.783c0,0.625-0.237,1.208-0.657,1.655h0.418C20.38,63.54,20.579,62.965,20.579,62.355z"/>
</g>
<g opacity="0.1">
	<path d="M143.396,79.091v3.768h4.191v-3.768h-0.218h-3.742H143.396z M147.033,81.405c-0.128,0.001-0.231-0.102-0.232-0.229
		c-0.001-0.127,0.102-0.23,0.229-0.231c0.127-0.001,0.23,0.102,0.231,0.229C147.263,81.301,147.16,81.404,147.033,81.405z
		 M147.028,80.678c-0.127,0.001-0.231-0.102-0.232-0.229c0-0.128,0.103-0.231,0.229-0.232s0.231,0.102,0.231,0.229
		C147.258,80.573,147.155,80.677,147.028,80.678z M147.021,79.501c0.128-0.001,0.231,0.102,0.232,0.229
		c0.001,0.127-0.102,0.23-0.229,0.231c-0.127,0.001-0.23-0.102-0.231-0.229C146.791,79.605,146.894,79.502,147.021,79.501z"/>
	<polygon points="147.37,78.859 147.37,77.5 143.628,77.5 143.628,78.859 143.855,78.859 143.855,77.728 147.143,77.728 
		147.143,78.859 	"/>
	<path d="M148.084,76.086v-4.139c0-0.372-0.303-0.675-0.674-0.675l-0.031,0.002c-0.177,0.005-0.336,0.076-0.452,0.19
		c-0.085-0.318-0.378-0.553-0.733-0.553c-0.207,0-0.396,0.085-0.53,0.223c-0.066-0.343-0.371-0.604-0.745-0.604
		c-0.2,0-0.383,0.08-0.517,0.209v-2.218c0-0.411-0.335-0.745-0.758-0.745c-0.411,0-0.746,0.334-0.746,0.745v3.619
		c-0.035-0.066-0.07-0.132-0.105-0.197c-0.151-0.283-0.452-0.45-0.768-0.417c-0.116,0.012-0.225,0.047-0.334,0.113
		c-0.036,0.022-0.068,0.047-0.1,0.074c-0.298,0.247-0.384,0.673-0.205,1.014c0.621,1.149,1.14,2.383,1.535,3.649
		c0.032,0.215,0.098,0.42,0.204,0.629c0.05,0.094,0.109,0.183,0.174,0.268h0.296c-0.105-0.113-0.197-0.239-0.275-0.391
		c-0.087-0.168-0.145-0.349-0.177-0.556c-0.404-1.298-0.928-2.545-1.556-3.706c-0.131-0.25-0.069-0.55,0.149-0.732
		c0.022-0.019,0.046-0.038,0.084-0.061c0.068-0.041,0.145-0.066,0.227-0.075c0.225-0.021,0.435,0.093,0.544,0.299
		c0.109,0.2,0.216,0.404,0.319,0.61l0.216,0.427v-4.566c0-0.285,0.232-0.518,0.53-0.518c0.285,0,0.517,0.232,0.517,0.518v2.754
		h0.229c0-0.285,0.231-0.518,0.529-0.518c0.285,0,0.518,0.232,0.518,0.518v0.38h0.229c0-0.285,0.231-0.517,0.529-0.517
		c0.285,0,0.518,0.232,0.518,0.517v0.292h0.228c0-0.243,0.191-0.438,0.432-0.445c0.008,0,0.017-0.001,0.027-0.001
		c0.246,0,0.446,0.201,0.446,0.447v4.139c0,0.448-0.17,0.865-0.471,1.186h0.3C147.941,76.934,148.084,76.523,148.084,76.086z"/>
</g>
<g>
	
		<rect x="123.878" y="24.355" transform="matrix(0.9996 0.0292 -0.0292 0.9996 1.2915 -4.0186)" fill="#3C3C3B" width="28.43" height="35.616"/>
	<rect x="122.019" y="23.643" fill="#F6F6F6" width="28.431" height="35.616"/>
	<g>
		<path fill="#F2C28D" d="M129.134,31.81v-0.605c-0.287,0.333-0.524,0.415-1.068,0.415c-0.003,0-0.005,0-0.008,0h-0.002
			c-0.001,0-0.001,0-0.002,0c-0.002,0-0.005,0-0.008,0c-0.544,0-0.781-0.082-1.068-0.415v0.605l1.078,1.029L129.134,31.81z"/>
		<path fill="#61554E" d="M126.51,33.408l-0.569,0.05l-0.242-0.991l-0.924,0.236c-0.546,0.179-0.914,0.689-0.914,1.264v1.497h0.342
			h0.99h0.276h1.623l-1.055-1.719L126.51,33.408z"/>
		<path fill="#61554E" d="M131.337,32.703l-0.924-0.236l-0.242,0.991l-0.569-0.05l0.473,0.337l-1.055,1.719h1.623h0.276h0.99h0.343
			v-1.497C132.252,33.392,131.883,32.882,131.337,32.703z"/>
		<polygon fill="#EDEDED" points="127.337,33.458 127.103,33.211 127.636,35.019 127.767,33.566 127.718,33.129 		"/>
		<polygon fill="#EDEDED" points="128.394,33.129 128.345,33.566 128.476,35.019 129.009,33.211 128.774,33.458 		"/>
		<polygon fill="#C6C6C6" points="127.337,33.458 127.718,33.129 128.056,32.838 126.978,31.81 126.74,31.979 127.103,33.211 		"/>
		<polygon fill="#C6C6C6" points="128.394,33.129 128.774,33.458 129.009,33.211 129.371,31.979 129.134,31.81 128.056,32.838 		"/>
		<polygon fill="#B6312F" points="128.056,32.838 127.718,33.129 127.767,33.566 128.345,33.566 128.394,33.129 		"/>
		<polygon fill="#CF4941" points="128.345,33.566 127.767,33.566 127.636,35.019 127.768,35.464 128.344,35.464 128.476,35.019 		
			"/>
		<path fill="#FFD2A1" d="M128.046,31.619c0.003,0,0.006,0,0.008,0c0.001,0,0.001,0,0.002,0h0.002c0.003,0,0.005,0,0.008,0
			c0.544,0,0.781-0.082,1.068-0.415c0.126-0.146,0.263-0.342,0.439-0.601c0.149-0.219,0.266-0.547,0.354-0.961
			c0.012,0.003,0.022,0.008,0.034,0.01c0.037,0.007,0.076,0.002,0.113-0.013c0.159-0.06,0.208-0.286,0.255-0.578
			c0.059-0.36,0.042-0.681-0.158-0.713c-0.108-0.018-0.22,0.053-0.31,0.181v-0.969c0-0.051-0.005-0.1-0.015-0.148
			c-1.082,0.013-2.265,0.178-3.223-0.509c-0.224,0.134-0.374,0.377-0.374,0.657v0.969c-0.09-0.128-0.201-0.199-0.31-0.181
			c-0.2,0.032-0.233,0.353-0.175,0.713c0.047,0.292,0.112,0.518,0.271,0.578c0.037,0.015,0.076,0.02,0.114,0.013
			c0.011-0.002,0.021-0.006,0.033-0.01c0.088,0.415,0.204,0.742,0.354,0.961c0.177,0.259,0.313,0.455,0.439,0.601
			C127.265,31.538,127.502,31.619,128.046,31.619z"/>
		<path fill="#F07934" d="M126.25,28.53v-0.969c0-0.28,0.15-0.523,0.374-0.657c0.958,0.688,2.141,0.522,3.223,0.509
			c0.01,0.048,0.015,0.097,0.015,0.148v0.969c0.09-0.128,0.201-0.199,0.31-0.181l0.063-0.837c0.017-0.436-0.148-0.858-0.447-1.176
			c-0.433-0.458-0.865-0.607-1.729-0.607h-0.002c-0.001,0-0.001,0-0.002,0c-0.864,0-1.297,0.148-1.729,0.607
			c-0.299,0.317-0.464,0.74-0.447,1.176l0.063,0.837C126.049,28.331,126.16,28.402,126.25,28.53z"/>
		<polygon fill="#A18D81" points="129.602,33.408 130.171,33.458 130.413,32.467 129.371,31.979 129.009,33.211 128.476,35.019 
			128.344,35.464 128.516,35.464 128.841,35.464 129.02,35.464 130.074,33.745 		"/>
		<polygon fill="#A18D81" points="127.103,33.211 126.74,31.979 125.698,32.467 125.698,32.467 125.698,32.467 125.94,33.458 
			126.51,33.408 126.037,33.745 127.092,35.464 127.271,35.464 127.597,35.464 127.768,35.464 127.636,35.019 		"/>
	</g>
	<path fill="#575756" d="M148.519,26.917h-14.157c-0.313,0-0.568-0.254-0.568-0.568s0.255-0.568,0.568-0.568h14.157
		c0.313,0,0.567,0.254,0.567,0.568S148.832,26.917,148.519,26.917z"/>
	<path fill="#575756" d="M148.519,30.925h-14.157c-0.313,0-0.568-0.254-0.568-0.568c0-0.313,0.255-0.568,0.568-0.568h14.157
		c0.313,0,0.567,0.254,0.567,0.568C149.086,30.67,148.832,30.925,148.519,30.925z"/>
	<path fill="#575756" d="M148.519,34.933h-14.157c-0.313,0-0.568-0.254-0.568-0.568c0-0.314,0.255-0.568,0.568-0.568h14.157
		c0.313,0,0.567,0.254,0.567,0.568C149.086,34.679,148.832,34.933,148.519,34.933z"/>
	<path fill="#575756" d="M140.768,38.941H124.23c-0.313,0-0.567-0.254-0.567-0.568c0-0.314,0.254-0.568,0.567-0.568h16.537
		c0.313,0,0.568,0.254,0.568,0.568C141.336,38.687,141.081,38.941,140.768,38.941z"/>
	<path fill="#575756" d="M136.233,42.949H124.23c-0.313,0-0.567-0.255-0.567-0.568s0.254-0.568,0.567-0.568h12.003
		c0.313,0,0.568,0.254,0.568,0.568S136.547,42.949,136.233,42.949z"/>
	<path fill="#575756" d="M148.519,46.958H124.23c-0.313,0-0.567-0.254-0.567-0.568c0-0.313,0.254-0.568,0.567-0.568h24.288
		c0.313,0,0.567,0.254,0.567,0.568C149.086,46.703,148.832,46.958,148.519,46.958z"/>
	<path fill="#575756" d="M148.519,50.965h-12.989c-0.313,0-0.568-0.254-0.568-0.568c0-0.313,0.255-0.568,0.568-0.568h12.989
		c0.313,0,0.567,0.254,0.567,0.568C149.086,50.711,148.832,50.965,148.519,50.965z"/>
	<path fill="#575756" d="M148.519,54.973H135.15c-0.313,0-0.567-0.254-0.567-0.568s0.254-0.568,0.567-0.568h13.368
		c0.313,0,0.567,0.255,0.567,0.568S148.832,54.973,148.519,54.973z"/>
</g>
<g opacity="0.1">
	<path d="M25.115,71.829c-0.257,0-0.476-0.197-0.497-0.458c0,0-0.048-0.562-0.05-1.536c-0.001-0.276,0.223-0.5,0.499-0.501h0.001
		c0.275,0,0.499,0.223,0.5,0.499c0.002,0.912,0.045,1.443,0.046,1.454c0.023,0.275-0.182,0.517-0.456,0.54
		C25.144,71.829,25.13,71.829,25.115,71.829z"/>
	<path d="M25.182,67.547c-0.014,0-0.027,0-0.041-0.001c-0.275-0.022-0.48-0.263-0.458-0.539c0.074-0.931,0.187-1.877,0.332-2.812
		c0.043-0.273,0.3-0.46,0.571-0.417c0.272,0.042,0.459,0.298,0.417,0.571c-0.143,0.91-0.251,1.832-0.324,2.738
		C25.658,67.349,25.439,67.547,25.182,67.547z M26.054,62.032c-0.038,0-0.078-0.004-0.117-0.014
		c-0.269-0.065-0.434-0.335-0.369-0.604c0.225-0.933,0.487-1.851,0.78-2.727c0.088-0.262,0.378-0.401,0.633-0.315
		c0.263,0.087,0.403,0.371,0.316,0.633c-0.284,0.849-0.539,1.739-0.757,2.644C26.484,61.878,26.28,62.032,26.054,62.032z
		 M27.827,56.741c-0.067,0-0.137-0.014-0.202-0.042c-0.253-0.112-0.367-0.407-0.255-0.66c0.386-0.874,0.815-1.728,1.278-2.539
		c0.139-0.242,0.445-0.324,0.683-0.186c0.239,0.137,0.323,0.442,0.187,0.682c-0.446,0.781-0.861,1.604-1.233,2.447
		C28.202,56.63,28.019,56.741,27.827,56.741z M30.598,51.904c-0.103,0-0.205-0.031-0.294-0.096c-0.224-0.163-0.272-0.476-0.11-0.699
		c0.56-0.768,1.167-1.508,1.808-2.201c0.188-0.202,0.504-0.215,0.706-0.028c0.203,0.188,0.216,0.503,0.028,0.707
		c-0.614,0.665-1.197,1.375-1.733,2.111C30.904,51.833,30.752,51.904,30.598,51.904z M34.381,47.817
		c-0.142,0-0.282-0.06-0.381-0.176c-0.179-0.21-0.153-0.526,0.057-0.705c0.717-0.61,1.481-1.187,2.274-1.714
		c0.23-0.154,0.541-0.092,0.693,0.139c0.153,0.229,0.091,0.54-0.139,0.693c-0.761,0.506-1.494,1.059-2.181,1.644
		C34.611,47.778,34.496,47.817,34.381,47.817z M39.014,44.727c-0.181,0-0.355-0.099-0.444-0.271
		c-0.127-0.246-0.03-0.547,0.216-0.674c0.828-0.426,1.699-0.818,2.59-1.165c0.257-0.1,0.547,0.027,0.647,0.285
		s-0.027,0.547-0.284,0.647c-0.858,0.334-1.698,0.712-2.496,1.122C39.169,44.709,39.091,44.727,39.014,44.727z"/>
	<path d="M44.223,42.689c-0.218,0-0.419-0.144-0.481-0.363c-0.075-0.266,0.079-0.542,0.345-0.618
		c0.479-0.136,0.971-0.264,1.475-0.382c0.272-0.063,0.538,0.105,0.601,0.373c0.063,0.269-0.104,0.538-0.372,0.601
		c-0.488,0.115-0.964,0.238-1.43,0.371C44.313,42.684,44.268,42.689,44.223,42.689z"/>
</g>
<g opacity="0.1">
	<path d="M80.652,30.856c-0.118,0-0.236-0.042-0.332-0.126c-0.206-0.183-0.226-0.499-0.042-0.706
		c0.015-0.017,0.378-0.426,1.09-1.092c0.203-0.189,0.52-0.178,0.707,0.023c0.188,0.202,0.178,0.518-0.023,0.707
		c-0.674,0.63-1.021,1.021-1.025,1.024C80.928,30.799,80.79,30.856,80.652,30.856z"/>
	<path d="M83.923,27.91c-0.147,0-0.295-0.065-0.394-0.191c-0.17-0.217-0.133-0.531,0.085-0.702c0.758-0.594,1.56-1.178,2.385-1.735
		c0.226-0.153,0.538-0.095,0.693,0.135c0.155,0.229,0.095,0.54-0.135,0.694c-0.805,0.543-1.587,1.113-2.326,1.693
		C84.14,27.875,84.031,27.91,83.923,27.91z M88.747,24.649c-0.172,0-0.34-0.089-0.433-0.249c-0.139-0.239-0.058-0.545,0.182-0.684
		c0.845-0.491,1.717-0.961,2.593-1.397c0.245-0.123,0.548-0.023,0.67,0.225c0.123,0.247,0.022,0.547-0.225,0.67
		c-0.856,0.426-1.71,0.885-2.536,1.366C88.919,24.627,88.833,24.649,88.747,24.649z M93.957,22.053
		c-0.195,0-0.381-0.115-0.461-0.306c-0.107-0.254,0.013-0.548,0.268-0.655c0.904-0.38,1.829-0.735,2.748-1.056
		c0.256-0.091,0.545,0.047,0.636,0.308c0.092,0.261-0.047,0.546-0.308,0.637c-0.898,0.313-1.804,0.661-2.689,1.033
		C94.088,22.041,94.021,22.053,93.957,22.053z M131.044,21.1c-0.048,0-0.096-0.007-0.144-0.021
		c-0.943-0.283-1.871-0.542-2.787-0.778c-0.267-0.069-0.428-0.342-0.359-0.609c0.069-0.267,0.338-0.43,0.609-0.36
		c0.928,0.239,1.869,0.501,2.824,0.789c0.265,0.08,0.415,0.358,0.335,0.623C131.458,20.96,131.259,21.1,131.044,21.1z
		 M99.454,20.135c-0.219,0-0.419-0.144-0.481-0.365c-0.074-0.266,0.08-0.542,0.346-0.617c0.935-0.263,1.896-0.501,2.856-0.709
		c0.265-0.059,0.536,0.113,0.594,0.383c0.059,0.27-0.112,0.536-0.383,0.595c-0.94,0.204-1.881,0.438-2.796,0.695
		C99.544,20.129,99.499,20.135,99.454,20.135z M125.404,19.649c-0.035,0-0.07-0.003-0.105-0.011
		c-0.961-0.205-1.907-0.383-2.839-0.538c-0.272-0.045-0.456-0.303-0.411-0.575c0.046-0.272,0.297-0.46,0.575-0.411
		c0.945,0.157,1.907,0.338,2.884,0.546c0.27,0.058,0.442,0.323,0.385,0.593C125.843,19.488,125.635,19.649,125.404,19.649z
		 M105.143,18.902c-0.242,0-0.455-0.177-0.493-0.423c-0.042-0.273,0.145-0.528,0.418-0.571c0.958-0.148,1.939-0.271,2.917-0.365
		c0.272-0.028,0.52,0.174,0.546,0.45c0.026,0.275-0.175,0.519-0.45,0.545c-0.958,0.092-1.921,0.213-2.86,0.358
		C105.194,18.9,105.168,18.902,105.143,18.902z M119.66,18.698c-0.02,0-0.039-0.001-0.06-0.003
		c-0.959-0.113-1.927-0.202-2.875-0.266c-0.276-0.019-0.484-0.257-0.466-0.533c0.019-0.276,0.286-0.472,0.532-0.465
		c0.966,0.065,1.949,0.156,2.926,0.271c0.274,0.032,0.47,0.281,0.438,0.555C120.126,18.511,119.91,18.698,119.66,18.698z
		 M110.937,18.345c-0.268,0-0.489-0.211-0.5-0.48c-0.011-0.276,0.204-0.508,0.48-0.519c0.956-0.038,1.938-0.05,2.938-0.036
		c0.276,0.004,0.497,0.231,0.493,0.507c-0.004,0.273-0.227,0.493-0.5,0.493c-0.002,0-0.005,0-0.007,0
		c-0.984-0.015-1.947-0.002-2.886,0.035C110.949,18.345,110.942,18.345,110.937,18.345z"/>
	<path d="M135.252,22.5c-0.057,0-0.114-0.01-0.171-0.03c-0.472-0.172-0.94-0.337-1.406-0.497c-0.261-0.09-0.4-0.374-0.311-0.635
		c0.089-0.261,0.373-0.398,0.635-0.311c0.472,0.162,0.946,0.33,1.424,0.503c0.26,0.094,0.394,0.381,0.299,0.641
		C135.647,22.374,135.456,22.5,135.252,22.5z"/>
</g>
<g opacity="0.1">
	<path d="M155.055,34.068c-0.046,0-0.093-0.006-0.139-0.02c-0.879-0.254-1.4-0.354-1.405-0.355
		c-0.271-0.051-0.449-0.312-0.398-0.584c0.051-0.272,0.314-0.45,0.584-0.398c0.022,0.004,0.568,0.108,1.497,0.377
		c0.266,0.077,0.418,0.354,0.342,0.62C155.472,33.926,155.271,34.068,155.055,34.068z"/>
	<path d="M176.827,53.744c-0.197,0-0.384-0.117-0.463-0.312c-0.377-0.924-0.796-1.838-1.248-2.718
		c-0.126-0.246-0.028-0.547,0.217-0.673c0.246-0.125,0.547-0.029,0.674,0.217c0.464,0.905,0.896,1.846,1.283,2.797
		c0.104,0.255-0.019,0.547-0.274,0.651C176.954,53.732,176.891,53.744,176.827,53.744z M174.058,48.352
		c-0.165,0-0.327-0.083-0.423-0.233c-0.531-0.841-1.106-1.666-1.71-2.451c-0.168-0.219-0.127-0.533,0.092-0.701
		c0.218-0.168,0.531-0.128,0.701,0.092c0.622,0.809,1.215,1.659,1.763,2.526c0.147,0.233,0.078,0.542-0.156,0.69
		C174.242,48.327,174.149,48.352,174.058,48.352z M170.362,43.546c-0.134,0-0.269-0.054-0.366-0.16
		c-0.672-0.724-1.389-1.429-2.132-2.095c-0.205-0.184-0.223-0.5-0.038-0.706c0.185-0.206,0.501-0.222,0.706-0.039
		c0.766,0.687,1.505,1.413,2.196,2.16c0.188,0.202,0.176,0.519-0.026,0.707C170.606,43.502,170.484,43.546,170.362,43.546z
		 M165.85,39.497c-0.104,0-0.209-0.032-0.299-0.099c-0.796-0.593-1.629-1.159-2.476-1.682c-0.235-0.145-0.308-0.453-0.163-0.688
		c0.146-0.236,0.454-0.308,0.688-0.163c0.871,0.538,1.729,1.12,2.548,1.73c0.222,0.165,0.268,0.478,0.103,0.7
		C166.152,39.428,166.002,39.497,165.85,39.497z M160.688,36.309c-0.076,0-0.153-0.017-0.225-0.054
		c-0.896-0.451-1.814-0.865-2.729-1.231c-0.257-0.103-0.381-0.394-0.278-0.65s0.395-0.382,0.649-0.279
		c0.941,0.376,1.886,0.803,2.807,1.267c0.247,0.124,0.346,0.425,0.222,0.671C161.047,36.208,160.871,36.309,160.688,36.309z"/>
	<path d="M178.289,58.053c-0.22,0-0.422-0.146-0.482-0.368c-0.132-0.482-0.271-0.956-0.419-1.419
		c-0.084-0.263,0.062-0.544,0.325-0.628c0.267-0.085,0.545,0.062,0.628,0.325c0.151,0.477,0.295,0.962,0.431,1.458
		c0.072,0.266-0.084,0.542-0.351,0.614C178.377,58.047,178.332,58.053,178.289,58.053z"/>
</g>
<g opacity="0.1">
	<path d="M111.469,122.278c-0.073,0-0.146-0.016-0.217-0.05c-0.879-0.423-1.356-0.677-1.356-0.677
		c-0.243-0.13-0.336-0.433-0.206-0.677s0.431-0.338,0.677-0.206c0.005,0.003,0.469,0.25,1.319,0.659
		c0.249,0.119,0.354,0.418,0.233,0.667C111.833,122.174,111.654,122.278,111.469,122.278z"/>
	<path d="M144.132,130.322c-0.274,0-0.498-0.222-0.5-0.497s0.221-0.501,0.497-0.503c1.029-0.007,2.055-0.046,3.047-0.117
		c0.253-0.019,0.514,0.188,0.534,0.464c0.02,0.275-0.188,0.515-0.464,0.534c-1.013,0.072-2.06,0.112-3.111,0.119
		C144.134,130.322,144.133,130.322,144.132,130.322z M141.052,130.253c-0.008,0-0.017,0-0.025-0.001
		c-1.019-0.052-2.062-0.132-3.098-0.239c-0.275-0.028-0.475-0.273-0.446-0.548c0.028-0.275,0.295-0.476,0.548-0.446
		c1.021,0.104,2.045,0.184,3.047,0.235c0.276,0.014,0.488,0.249,0.474,0.524C141.537,130.046,141.316,130.253,141.052,130.253z
		 M150.272,129.882c-0.245,0-0.459-0.181-0.494-0.43c-0.039-0.273,0.151-0.526,0.425-0.565c1.018-0.144,2.024-0.325,2.994-0.539
		c0.275-0.059,0.536,0.112,0.596,0.381c0.06,0.27-0.111,0.536-0.381,0.596c-0.993,0.219-2.026,0.405-3.068,0.553
		C150.319,129.88,150.296,129.882,150.272,129.882z M134.924,129.624c-0.025,0-0.051-0.002-0.076-0.006
		c-1.034-0.157-2.055-0.336-3.059-0.533c-0.271-0.053-0.447-0.315-0.394-0.587c0.052-0.271,0.311-0.451,0.587-0.394
		c0.988,0.193,1.995,0.37,3.016,0.525c0.273,0.041,0.461,0.296,0.419,0.569C135.38,129.446,135.166,129.624,134.924,129.624z
		 M156.283,128.55c-0.214,0-0.411-0.138-0.478-0.352c-0.082-0.264,0.065-0.544,0.329-0.626c0.977-0.303,1.938-0.647,2.857-1.026
		c0.256-0.104,0.548,0.019,0.653,0.272c0.104,0.256-0.018,0.548-0.272,0.653c-0.948,0.389-1.938,0.744-2.941,1.056
		C156.382,128.543,156.332,128.55,156.283,128.55z M128.872,128.439c-0.038,0-0.077-0.004-0.116-0.014
		c-1.027-0.244-2.029-0.505-3.002-0.776c-0.267-0.074-0.422-0.35-0.348-0.615s0.348-0.421,0.615-0.348
		c0.961,0.268,1.951,0.524,2.967,0.767c0.269,0.063,0.435,0.333,0.37,0.603C129.304,128.285,129.099,128.439,128.872,128.439z
		 M122.933,126.788c-0.05,0-0.102-0.008-0.151-0.023c-1.025-0.326-2.007-0.657-2.938-0.986c-0.26-0.093-0.396-0.378-0.305-0.639
		c0.094-0.26,0.379-0.396,0.639-0.305c0.922,0.327,1.894,0.654,2.907,0.977c0.264,0.084,0.409,0.365,0.325,0.628
		C123.342,126.652,123.145,126.788,122.933,126.788z M161.973,126.206c-0.18,0-0.354-0.098-0.442-0.268
		c-0.129-0.244-0.034-0.547,0.21-0.675c0.897-0.472,1.775-0.989,2.611-1.538c0.229-0.151,0.54-0.089,0.692,0.144
		c0.151,0.23,0.087,0.541-0.144,0.692c-0.862,0.566-1.77,1.101-2.695,1.587C162.131,126.188,162.052,126.206,161.973,126.206z
		 M117.121,124.729c-0.061,0-0.122-0.011-0.183-0.034c-1.06-0.416-2.02-0.815-2.867-1.182c-0.254-0.109-0.37-0.404-0.261-0.657
		c0.109-0.255,0.404-0.373,0.657-0.261c0.838,0.362,1.788,0.758,2.836,1.168c0.257,0.102,0.384,0.392,0.283,0.648
		C117.51,124.608,117.32,124.729,117.121,124.729z M167.116,122.83c-0.146,0-0.291-0.063-0.39-0.187
		c-0.173-0.215-0.139-0.53,0.076-0.703c0.781-0.629,1.545-1.306,2.269-2.012c0.197-0.191,0.514-0.188,0.707,0.01
		c0.192,0.197,0.188,0.514-0.01,0.707c-0.746,0.728-1.533,1.425-2.339,2.074C167.337,122.794,167.227,122.83,167.116,122.83z
		 M171.525,118.54c-0.115,0-0.23-0.039-0.325-0.12c-0.21-0.18-0.234-0.495-0.055-0.705c0.646-0.756,1.277-1.56,1.874-2.39
		c0.161-0.225,0.476-0.275,0.698-0.114c0.225,0.162,0.275,0.475,0.114,0.698c-0.614,0.853-1.262,1.679-1.927,2.456
		C171.807,118.48,171.666,118.54,171.525,118.54z M175.125,113.548c-0.089,0-0.179-0.023-0.26-0.072
		c-0.235-0.144-0.311-0.451-0.168-0.688c0.517-0.851,1.017-1.744,1.487-2.656c0.127-0.247,0.428-0.343,0.673-0.216
		c0.246,0.126,0.343,0.428,0.216,0.673c-0.48,0.934-0.992,1.849-1.521,2.719C175.458,113.462,175.293,113.548,175.125,113.548z"/>
	<path d="M177.967,108.041c-0.066,0-0.135-0.014-0.199-0.042c-0.254-0.109-0.369-0.404-0.259-0.657
		c0.195-0.449,0.387-0.906,0.574-1.372c0.104-0.256,0.395-0.378,0.651-0.276c0.256,0.104,0.38,0.395,0.276,0.651
		c-0.191,0.474-0.387,0.938-0.586,1.396C178.344,107.929,178.159,108.041,177.967,108.041z"/>
</g>
<g opacity="0.1">
	<path d="M35.233,114.032c-0.147,0-0.293-0.064-0.392-0.189c-0.613-0.773-0.919-1.233-0.919-1.233
		c-0.152-0.229-0.089-0.54,0.141-0.692c0.23-0.153,0.54-0.092,0.692,0.14c0.007,0.01,0.296,0.442,0.869,1.165
		c0.172,0.216,0.136,0.53-0.081,0.702C35.452,113.997,35.343,114.032,35.233,114.032z"/>
	<path d="M69.922,130.387c-0.275,0-0.499-0.223-0.5-0.498c-0.001-0.276,0.223-0.501,0.498-0.502
		c0.991-0.003,2.007-0.038,3.019-0.104c0.265-0.024,0.513,0.191,0.531,0.467c0.018,0.275-0.191,0.514-0.467,0.531
		c-1.032,0.067-2.068,0.103-3.079,0.105C69.923,130.387,69.922,130.387,69.922,130.387z M66.873,130.299
		c-0.01,0-0.021,0-0.031-0.001c-1.038-0.065-2.07-0.164-3.068-0.292c-0.274-0.035-0.468-0.286-0.433-0.56
		c0.035-0.275,0.29-0.47,0.56-0.433c0.978,0.126,1.988,0.222,3.004,0.286c0.275,0.018,0.485,0.255,0.468,0.53
		C67.355,130.095,67.136,130.299,66.873,130.299z M76.007,129.996c-0.248,0-0.464-0.186-0.495-0.438
		c-0.034-0.274,0.161-0.523,0.435-0.558c0.978-0.121,1.983-0.273,2.99-0.454c0.265-0.044,0.532,0.132,0.58,0.404
		c0.049,0.271-0.132,0.531-0.404,0.58c-1.023,0.184-2.048,0.339-3.043,0.462C76.048,129.995,76.027,129.996,76.007,129.996z
		 M60.828,129.517c-0.033,0-0.065-0.003-0.099-0.01c-1.003-0.2-2.014-0.438-3.003-0.709c-0.267-0.073-0.423-0.348-0.351-0.614
		c0.073-0.266,0.346-0.422,0.614-0.351c0.967,0.265,1.954,0.498,2.935,0.693c0.271,0.054,0.446,0.317,0.393,0.588
		C61.271,129.353,61.062,129.517,60.828,129.517z M82.011,128.918c-0.228,0-0.433-0.155-0.487-0.386
		c-0.062-0.27,0.104-0.538,0.373-0.602c0.982-0.229,1.968-0.485,2.929-0.762c0.262-0.08,0.542,0.076,0.618,0.343
		c0.076,0.265-0.077,0.542-0.343,0.618c-0.977,0.281-1.978,0.541-2.976,0.775C82.086,128.914,82.048,128.918,82.011,128.918z
		 M54.947,127.909c-0.055,0-0.11-0.009-0.165-0.028c-0.961-0.336-1.929-0.714-2.875-1.122c-0.253-0.109-0.37-0.403-0.261-0.657
		c0.108-0.254,0.404-0.372,0.657-0.261c0.925,0.399,1.87,0.768,2.809,1.097c0.261,0.091,0.398,0.376,0.307,0.637
		C55.347,127.78,55.154,127.909,54.947,127.909z M87.878,127.247c-0.209,0-0.404-0.132-0.474-0.341
		c-0.088-0.262,0.053-0.546,0.314-0.633c0.938-0.314,1.889-0.655,2.854-1.022c0.257-0.1,0.548,0.029,0.645,0.289
		c0.099,0.258-0.03,0.547-0.289,0.645c-0.977,0.373-1.94,0.718-2.891,1.036C87.984,127.239,87.931,127.247,87.878,127.247z
		 M49.349,125.493c-0.078,0-0.156-0.018-0.229-0.056c-0.905-0.467-1.811-0.976-2.69-1.512c-0.236-0.144-0.311-0.451-0.167-0.687
		c0.143-0.237,0.452-0.311,0.687-0.167c0.86,0.523,1.745,1.021,2.63,1.477c0.245,0.127,0.342,0.429,0.215,0.674
		C49.704,125.395,49.529,125.493,49.349,125.493z M93.577,125.073c-0.194,0-0.379-0.113-0.46-0.304
		c-0.108-0.254,0.01-0.548,0.264-0.656c0.911-0.389,1.834-0.803,2.767-1.241c0.252-0.118,0.547-0.01,0.665,0.239
		c0.118,0.25,0.011,0.548-0.239,0.665c-0.944,0.444-1.877,0.862-2.8,1.257C93.71,125.061,93.643,125.073,93.577,125.073z
		 M44.136,122.328c-0.1,0-0.2-0.029-0.288-0.092c-0.842-0.593-1.67-1.219-2.461-1.86c-0.215-0.174-0.248-0.489-0.074-0.703
		c0.174-0.216,0.491-0.248,0.703-0.074c0.774,0.628,1.585,1.24,2.408,1.821c0.226,0.158,0.279,0.471,0.12,0.696
		C44.447,122.254,44.292,122.328,44.136,122.328z M39.395,118.489c-0.122,0-0.244-0.044-0.34-0.134
		c-0.763-0.707-1.499-1.439-2.19-2.177c-0.188-0.201-0.178-0.518,0.023-0.707c0.202-0.188,0.518-0.179,0.707,0.023
		c0.675,0.721,1.395,1.437,2.14,2.128c0.203,0.188,0.215,0.504,0.026,0.706C39.663,118.436,39.528,118.489,39.395,118.489z"/>
	<path d="M99.117,122.468c-0.181,0-0.355-0.099-0.444-0.271c-0.127-0.245-0.03-0.547,0.216-0.673
		c0.438-0.226,0.879-0.456,1.322-0.692c0.242-0.13,0.547-0.039,0.677,0.206c0.13,0.244,0.037,0.547-0.206,0.677
		c-0.447,0.238-0.894,0.471-1.336,0.698C99.272,122.45,99.194,122.468,99.117,122.468z"/>
</g>
<g opacity="0.1">
	<polygon points="188.377,52.461 188.447,53.095 189.275,53.095 189.347,52.461 188.861,52.044 	"/>
	<path d="M185.763,53.178l0.1-0.072l0.292-0.208l-0.345,0.03l-0.113,0.01l-0.026-0.11l-0.351-1.435l-1.212,0.31
		c-0.791,0.26-1.325,0.999-1.325,1.833v2.171h0.496h1.437h0.4h2.198l-1.486-2.423L185.763,53.178z"/>
	<path d="M193.615,51.703l-1.212-0.31l-0.351,1.435l-0.026,0.11l-0.113-0.01l-0.345-0.03l0.292,0.208l0.1,0.072l-0.063,0.105
		l-1.487,2.423h2.198h0.4h1.437h0.496v-2.171C194.94,52.702,194.406,51.963,193.615,51.703z"/>
	<path d="M190.615,50.693l0.022-0.077l0.014-0.044l-0.231-0.166l-1.559,1.488l-1.559-1.488l-0.231,0.166l0.014,0.044l0.022,0.077
		c0.037-0.022,0.184-0.115,0.184-0.115l1.378,1.316l-0.379,0.327l-0.589,0.486l0.043,0.146l0.633-0.532l0.484-0.417l0.485,0.417
		l0.632,0.532l0.043-0.146l-0.589-0.486l-0.38-0.327l1.379-1.316C190.432,50.578,190.578,50.671,190.615,50.693z"/>
	<path d="M187.303,49.858v0.387l0.186,0.156v-0.387C187.425,49.968,187.363,49.917,187.303,49.858z"/>
	<path d="M190.42,49.858c-0.061,0.059-0.122,0.11-0.186,0.157v0.387l0.186-0.156V49.858z"/>
	<polygon points="189.442,54.786 189.285,53.18 188.438,53.18 188.28,54.786 188.374,55.08 188.564,55.672 188.576,55.707 
		189.146,55.707 189.158,55.672 189.349,55.08 	"/>
	<polygon points="187.484,52.439 186.958,50.654 185.447,51.36 185.798,52.797 186.624,52.725 185.939,53.214 187.468,55.707 
		187.727,55.707 188.199,55.707 188.448,55.707 188.258,55.061 	"/>
	<polygon points="191.099,52.725 191.925,52.797 192.275,51.36 192.275,51.36 190.765,50.654 190.238,52.439 189.465,55.061 
		189.274,55.707 189.523,55.707 189.996,55.707 190.255,55.707 191.783,53.214 	"/>
	<path d="M188.916,44.121c-0.076,0-0.149,0.007-0.22,0.021c-0.212,0.041-0.396,0.143-0.556,0.306
		c-0.159,0.164-0.259,0.352-0.298,0.563c-0.014,0.071-0.021,0.144-0.021,0.22c0,0.293,0.104,0.552,0.31,0.774
		c0.207,0.224,0.468,0.335,0.784,0.335c0.078,0,0.154-0.007,0.227-0.021c0.145-0.028,0.276-0.083,0.396-0.167
		c0.06-0.042,0.116-0.091,0.169-0.147c0.212-0.223,0.318-0.481,0.318-0.774c0-0.076-0.007-0.149-0.021-0.22
		c-0.027-0.142-0.081-0.272-0.163-0.392c-0.041-0.06-0.089-0.117-0.143-0.172C189.481,44.23,189.221,44.121,188.916,44.121z"/>
	<path d="M186.362,36.771c0.18,0.125,0.361,0.188,0.546,0.188c0.186,0,0.327-0.06,0.425-0.179s0.207-0.248,0.327-0.383
		c0.118-0.136,0.279-0.264,0.48-0.384c0.101-0.06,0.227-0.104,0.377-0.134c0.151-0.03,0.327-0.045,0.528-0.045
		c0.375,0,0.697,0.067,0.966,0.202c0.089,0.045,0.173,0.097,0.25,0.157c0.077,0.06,0.146,0.127,0.203,0.2
		c0.175,0.22,0.262,0.501,0.262,0.845c0,0.283-0.057,0.53-0.171,0.742c-0.114,0.212-0.253,0.405-0.416,0.579
		s-0.338,0.334-0.522,0.481c-0.186,0.146-0.348,0.285-0.49,0.416c-0.118,0.098-0.236,0.218-0.35,0.359
		c-0.114,0.142-0.218,0.313-0.31,0.514c-0.093,0.202-0.169,0.441-0.229,0.718c-0.022,0.106-0.038,0.225-0.051,0.349
		c-0.023,0.195-0.038,0.403-0.038,0.638c0,0.348,0.057,0.587,0.171,0.718c0.086,0.098,0.216,0.159,0.39,0.184
		c0.059,0.008,0.122,0.012,0.189,0.012l0,0l0,0c0.337,0,0.558-0.06,0.661-0.179c0.052-0.06,0.09-0.124,0.116-0.191
		c0.025-0.068,0.038-0.14,0.038-0.216c0-0.125,0.002-0.242,0.005-0.353c0.003-0.103,0.007-0.2,0.012-0.292
		c0.002-0.025,0.006-0.048,0.008-0.073c0.014-0.163,0.039-0.319,0.082-0.466c0.049-0.168,0.131-0.332,0.245-0.489
		c0.113-0.158,0.269-0.318,0.465-0.481c0.12-0.108,0.288-0.258,0.505-0.449c0.109-0.095,0.218-0.2,0.325-0.314
		s0.214-0.238,0.32-0.372c0.212-0.266,0.394-0.571,0.546-0.914s0.229-0.726,0.229-1.15c0-0.098-0.005-0.194-0.015-0.288
		c-0.029-0.284-0.104-0.552-0.222-0.805c-0.079-0.168-0.174-0.326-0.286-0.471c-0.111-0.146-0.239-0.279-0.383-0.402
		c-0.144-0.122-0.304-0.232-0.479-0.328c-0.175-0.097-0.366-0.18-0.573-0.251c-0.413-0.141-0.881-0.212-1.402-0.212
		c-0.245,0-0.476,0.016-0.691,0.047c-0.217,0.031-0.418,0.078-0.606,0.14c-0.133,0.044-0.249,0.099-0.366,0.152
		c-0.216,0.097-0.415,0.203-0.58,0.33c-0.128,0.098-0.239,0.199-0.334,0.304c-0.096,0.104-0.175,0.212-0.237,0.324
		c-0.125,0.223-0.188,0.433-0.188,0.628c0,0.204,0.051,0.366,0.151,0.488C186.278,36.704,186.317,36.74,186.362,36.771z"/>
	<path d="M185.905,47.346c0.059,0.023,0.117,0.031,0.177,0.028c0.131,0.584,0.302,1.034,0.508,1.336
		c0.237,0.349,0.45,0.656,0.644,0.88c0.423,0.491,0.786,0.633,1.639,0.633l0,0h0.008c0.832,0,1.195-0.142,1.619-0.633
		c0.192-0.224,0.405-0.531,0.644-0.88c0.066-0.098,0.132-0.22,0.204-0.384c0.006-0.012,0.01-0.026,0.016-0.038
		c0.066-0.154,0.127-0.322,0.18-0.502c0.003-0.009,0.004-0.017,0.007-0.026c0.038-0.133,0.072-0.261,0.101-0.386
		c0.06,0.003,0.119-0.005,0.176-0.028c0.277-0.105,0.355-0.458,0.428-0.909c0.143-0.878-0.087-1.105-0.305-1.141
		c-0.002,0-0.005,0-0.008,0l0.085-1.122c0.023-0.632-0.216-1.245-0.649-1.705c-0.332-0.353-0.668-0.576-1.094-0.711
		c-0.015-0.004-0.033-0.006-0.048-0.01c-0.01,0.184-0.016,0.389-0.016,0.61c0,0.272-0.096,0.527-0.277,0.738
		c-0.025,0.029-0.058,0.044-0.085,0.069h0.463c0.534,0,0.974,0.391,1.056,0.902c0.003,0.019,0.003,0.039,0.006,0.058
		c0.001,0,0.002,0,0.004,0c0.004,0.034,0.005,0.067,0.006,0.101c0,0.004,0.002,0.008,0.002,0.013v0.008v0.05v1.223v0.058v0.369
		l0.168-0.242c0.111-0.16,0.241-0.245,0.358-0.225c0.185,0.03,0.241,0.377,0.151,0.929c-0.061,0.377-0.126,0.696-0.312,0.766
		c-0.039,0.015-0.08,0.02-0.114,0.014c-0.009-0.001-0.017-0.005-0.035-0.011l-0.099-0.034l-0.021,0.103
		c-0.034,0.158-0.074,0.319-0.124,0.49c-0.055,0.187-0.118,0.361-0.188,0.516c-0.068,0.154-0.128,0.267-0.188,0.355
		c-0.234,0.345-0.444,0.647-0.631,0.864c-0.39,0.452-0.693,0.568-1.479,0.568h-0.004h-0.024c-0.785,0-1.089-0.117-1.479-0.568
		c-0.187-0.217-0.396-0.52-0.631-0.864c-0.203-0.298-0.371-0.756-0.5-1.361l-0.029-0.1l-0.1,0.035
		c-0.009,0.003-0.018,0.006-0.025,0.008c-0.037,0.006-0.075,0.001-0.116-0.014c-0.199-0.075-0.281-0.429-0.336-0.766
		c-0.086-0.533-0.017-0.897,0.177-0.929c0.118-0.018,0.248,0.065,0.358,0.225l0.169,0.242v-0.369V45.52v-1.223v-0.05v-0.008
		c0-0.366,0.184-0.688,0.464-0.882c0.173-0.12,0.382-0.19,0.608-0.19h0.622c-0.03-0.027-0.064-0.051-0.092-0.083
		c-0.203-0.23-0.297-0.564-0.297-1.051c0-0.118,0.009-0.222,0.014-0.332c-0.531,0.123-0.918,0.361-1.304,0.77
		c-0.434,0.46-0.673,1.072-0.649,1.705l0.085,1.122c-0.003,0-0.005,0-0.008,0c-0.318,0.052-0.438,0.467-0.329,1.14
		C185.52,46.846,185.619,47.238,185.905,47.346z"/>
</g>
<g opacity="0.1">
	<polygon points="57.124,28.307 57.194,28.94 58.023,28.94 58.094,28.307 57.609,27.889 	"/>
	<path d="M54.51,29.023l0.101-0.072l0.292-0.208l-0.345,0.03l-0.113,0.01l-0.026-0.11l-0.351-1.435l-1.212,0.31
		c-0.791,0.261-1.326,1-1.326,1.833v2.171h0.497h1.436h0.401h2.198l-1.487-2.423L54.51,29.023z"/>
	<path d="M62.362,27.548l-1.211-0.31l-0.351,1.435l-0.027,0.11l-0.112-0.01l-0.345-0.03l0.292,0.208l0.1,0.072l-0.064,0.105
		l-1.486,2.423h2.198h0.4h1.437h0.496v-2.171C63.688,28.547,63.154,27.809,62.362,27.548z"/>
	<path d="M59.363,26.539l0.022-0.077l0.014-0.044l-0.232-0.166l-1.558,1.488l-1.559-1.488l-0.231,0.166l0.013,0.044l0.022,0.077
		c0.037-0.022,0.185-0.115,0.185-0.115l1.378,1.316l-0.379,0.327l-0.589,0.486l0.043,0.146l0.632-0.532l0.485-0.417l0.484,0.417
		l0.633,0.532l0.043-0.146l-0.59-0.486l-0.379-0.327l1.379-1.316C59.18,26.423,59.326,26.516,59.363,26.539z"/>
	<path d="M56.051,25.703v0.387l0.185,0.156V25.86C56.173,25.813,56.111,25.762,56.051,25.703z"/>
	<path d="M59.167,25.703c-0.061,0.059-0.122,0.11-0.185,0.157v0.387l0.185-0.156V25.703z"/>
	<polygon points="58.19,30.631 58.033,29.025 57.185,29.025 57.027,30.631 57.122,30.925 57.312,31.518 57.323,31.552 
		57.895,31.552 57.905,31.518 58.096,30.925 	"/>
	<polygon points="56.232,28.285 55.706,26.5 54.195,27.206 54.546,28.642 55.372,28.57 54.687,29.059 56.216,31.552 56.475,31.552 
		56.947,31.552 57.195,31.552 57.005,30.906 	"/>
	<polygon points="59.847,28.57 60.673,28.642 61.023,27.206 61.023,27.206 59.513,26.5 58.986,28.285 58.213,30.906 58.022,31.552 
		58.271,31.552 58.743,31.552 59.002,31.552 60.531,29.059 	"/>
	<path d="M57.663,19.966c-0.076,0-0.149,0.007-0.22,0.021c-0.211,0.041-0.396,0.143-0.555,0.306
		c-0.159,0.164-0.259,0.352-0.299,0.563c-0.013,0.071-0.02,0.144-0.02,0.22c0,0.293,0.104,0.552,0.31,0.774
		c0.207,0.224,0.468,0.335,0.783,0.335c0.079,0,0.155-0.007,0.228-0.021c0.145-0.028,0.276-0.083,0.396-0.167
		c0.06-0.042,0.116-0.09,0.169-0.146c0.212-0.223,0.318-0.481,0.318-0.774c0-0.076-0.007-0.149-0.021-0.22
		c-0.027-0.142-0.082-0.272-0.163-0.392c-0.041-0.06-0.089-0.117-0.144-0.172C58.229,20.075,57.968,19.966,57.663,19.966z"/>
	<path d="M55.11,12.616c0.18,0.125,0.361,0.188,0.546,0.188s0.327-0.06,0.425-0.179s0.207-0.248,0.326-0.383
		c0.119-0.136,0.279-0.264,0.481-0.384c0.101-0.06,0.227-0.104,0.377-0.134c0.151-0.03,0.327-0.045,0.528-0.045
		c0.375,0,0.697,0.067,0.966,0.202c0.089,0.045,0.173,0.097,0.25,0.157c0.077,0.06,0.146,0.127,0.203,0.2
		c0.175,0.22,0.262,0.501,0.262,0.844c0,0.283-0.058,0.53-0.171,0.743c-0.114,0.212-0.254,0.405-0.416,0.579
		c-0.163,0.174-0.338,0.334-0.522,0.481c-0.186,0.147-0.349,0.285-0.49,0.416c-0.119,0.098-0.236,0.218-0.35,0.359
		c-0.114,0.142-0.218,0.313-0.311,0.514c-0.093,0.202-0.169,0.441-0.229,0.718c-0.022,0.106-0.038,0.225-0.052,0.349
		c-0.022,0.195-0.037,0.403-0.037,0.638c0,0.348,0.057,0.587,0.171,0.718c0.085,0.098,0.216,0.159,0.39,0.184
		c0.059,0.008,0.121,0.012,0.189,0.012l0,0l0,0c0.337,0,0.557-0.06,0.661-0.179c0.051-0.06,0.09-0.124,0.115-0.191
		c0.026-0.068,0.039-0.14,0.039-0.216c0-0.125,0.002-0.242,0.005-0.353c0.003-0.103,0.007-0.2,0.012-0.292
		c0.001-0.025,0.006-0.048,0.008-0.072c0.014-0.163,0.039-0.319,0.082-0.466c0.049-0.168,0.131-0.332,0.244-0.489
		c0.114-0.158,0.27-0.318,0.466-0.481c0.119-0.108,0.287-0.258,0.505-0.449c0.109-0.095,0.217-0.2,0.324-0.314
		s0.215-0.238,0.321-0.372c0.212-0.266,0.394-0.571,0.546-0.914s0.229-0.726,0.229-1.15c0-0.098-0.005-0.194-0.015-0.289
		c-0.03-0.283-0.104-0.551-0.222-0.804c-0.079-0.168-0.174-0.326-0.286-0.471c-0.111-0.146-0.239-0.279-0.383-0.402
		c-0.145-0.122-0.304-0.232-0.479-0.328c-0.176-0.097-0.366-0.18-0.573-0.251c-0.414-0.141-0.881-0.212-1.403-0.212
		c-0.244,0-0.475,0.016-0.691,0.047c-0.216,0.031-0.418,0.078-0.605,0.14c-0.133,0.044-0.249,0.099-0.367,0.152
		c-0.215,0.097-0.414,0.203-0.579,0.33c-0.128,0.098-0.239,0.199-0.335,0.304c-0.095,0.104-0.174,0.213-0.236,0.324
		c-0.125,0.223-0.188,0.433-0.188,0.628c0,0.204,0.051,0.366,0.151,0.488C55.026,12.549,55.065,12.585,55.11,12.616z"/>
	<path d="M54.653,23.191c0.059,0.023,0.117,0.031,0.176,0.028c0.132,0.584,0.302,1.034,0.508,1.336
		c0.238,0.349,0.451,0.657,0.645,0.88c0.423,0.491,0.785,0.632,1.638,0.632h0.001l0.007,0c0.833,0,1.196-0.142,1.619-0.633
		c0.193-0.224,0.406-0.531,0.645-0.88c0.066-0.098,0.131-0.22,0.204-0.384c0.006-0.012,0.01-0.026,0.016-0.038
		c0.066-0.154,0.127-0.322,0.18-0.502c0.003-0.009,0.004-0.017,0.007-0.026c0.038-0.133,0.072-0.261,0.101-0.386
		c0.06,0.003,0.118-0.005,0.176-0.028c0.277-0.105,0.355-0.458,0.428-0.909c0.143-0.878-0.087-1.105-0.305-1.141
		c-0.003,0-0.005,0-0.008,0l0.085-1.122c0.023-0.632-0.216-1.245-0.649-1.705c-0.332-0.353-0.668-0.576-1.094-0.711
		c-0.015-0.004-0.033-0.006-0.048-0.01c-0.011,0.184-0.016,0.389-0.016,0.61c0,0.272-0.096,0.527-0.277,0.738
		c-0.025,0.029-0.058,0.044-0.085,0.069h0.463c0.534,0,0.973,0.391,1.056,0.902c0.003,0.019,0.003,0.039,0.006,0.058
		c0.001,0,0.002,0,0.003,0c0.005,0.034,0.006,0.067,0.007,0.101c0,0.004,0.001,0.008,0.001,0.013v0.008v0.05v1.223v0.058v0.369
		l0.169-0.242c0.111-0.16,0.24-0.245,0.358-0.225c0.185,0.03,0.241,0.377,0.151,0.929c-0.061,0.377-0.126,0.696-0.312,0.766
		c-0.039,0.015-0.08,0.02-0.114,0.014c-0.009-0.001-0.018-0.005-0.035-0.011l-0.099-0.034l-0.021,0.103
		c-0.034,0.158-0.074,0.319-0.125,0.49c-0.054,0.187-0.117,0.361-0.187,0.516c-0.068,0.154-0.128,0.267-0.188,0.355
		c-0.234,0.345-0.444,0.647-0.631,0.864c-0.39,0.452-0.693,0.568-1.479,0.568h-0.004H57.6c-0.785,0-1.089-0.117-1.479-0.568
		c-0.188-0.217-0.396-0.52-0.631-0.864c-0.203-0.298-0.371-0.756-0.5-1.361l-0.03-0.1l-0.099,0.035
		c-0.009,0.003-0.018,0.006-0.025,0.008c-0.038,0.006-0.076,0.001-0.116-0.014c-0.199-0.076-0.282-0.429-0.336-0.766
		c-0.086-0.533-0.017-0.897,0.177-0.929c0.117-0.018,0.247,0.065,0.358,0.225l0.168,0.242v-0.369v-0.058v-1.223v-0.05v-0.008
		c0-0.366,0.185-0.688,0.465-0.882c0.173-0.12,0.382-0.19,0.608-0.19h0.622c-0.031-0.027-0.065-0.051-0.092-0.083
		c-0.203-0.23-0.298-0.564-0.298-1.051c0-0.118,0.01-0.223,0.015-0.332c-0.531,0.123-0.918,0.361-1.304,0.77
		c-0.434,0.46-0.673,1.072-0.649,1.705l0.085,1.122c-0.003,0-0.006,0-0.008,0c-0.319,0.052-0.438,0.467-0.33,1.14
		C54.267,22.691,54.367,23.083,54.653,23.191z"/>
</g>
<g opacity="0.1">
	<polygon points="54.962,120.693 55.013,121.146 55.605,121.146 55.656,120.693 55.31,120.395 	"/>
	<path d="M53.091,121.207l0.071-0.052l0.209-0.149l-0.246,0.021l-0.081,0.008l-0.02-0.079l-0.251-1.027l-0.867,0.222
		c-0.566,0.187-0.949,0.716-0.949,1.312v1.554h0.355h1.028h0.287h1.573l-1.064-1.735L53.091,121.207z"/>
	<path d="M58.712,120.15l-0.867-0.222l-0.251,1.027l-0.019,0.079l-0.081-0.008l-0.247-0.021l0.209,0.149l0.071,0.052l-0.046,0.074
		l-1.063,1.735h1.573h0.286h1.028h0.355v-1.554C59.661,120.866,59.278,120.337,58.712,120.15z"/>
	<path d="M56.565,119.428l0.016-0.055l0.01-0.031l-0.166-0.119l-1.115,1.065l-1.116-1.065l-0.165,0.119l0.009,0.031l0.017,0.055
		c0.026-0.017,0.132-0.082,0.132-0.082l0.986,0.942l-0.271,0.233l-0.422,0.348l0.031,0.104l0.452-0.381l0.348-0.299l0.347,0.299
		l0.453,0.381l0.03-0.104l-0.422-0.348l-0.271-0.233l0.987-0.942C56.434,119.346,56.538,119.411,56.565,119.428z"/>
	<path d="M54.193,118.83v0.276l0.133,0.112v-0.277C54.281,118.908,54.237,118.872,54.193,118.83z"/>
	<path d="M56.425,118.83c-0.043,0.042-0.088,0.078-0.133,0.111v0.277l0.133-0.112V118.83z"/>
	<polygon points="55.726,122.357 55.613,121.208 55.006,121.208 54.893,122.357 54.961,122.568 55.097,122.992 55.104,123.017 
		55.514,123.017 55.521,122.992 55.658,122.568 	"/>
	<polygon points="54.323,120.678 53.946,119.399 52.865,119.905 53.116,120.934 53.708,120.882 53.218,121.232 54.312,123.017 
		54.497,123.017 54.835,123.017 55.014,123.017 54.877,122.555 	"/>
	<polygon points="56.911,120.882 57.502,120.934 57.753,119.905 57.753,119.905 56.672,119.399 56.295,120.678 55.741,122.555 
		55.605,123.017 55.783,123.017 56.121,123.017 56.307,123.017 57.401,121.232 	"/>
	<path d="M55.348,114.723c-0.054,0-0.106,0.006-0.157,0.016c-0.15,0.028-0.283,0.102-0.397,0.219
		c-0.113,0.116-0.185,0.251-0.213,0.402c-0.01,0.051-0.015,0.104-0.015,0.158c0,0.21,0.074,0.395,0.222,0.555
		c0.148,0.159,0.335,0.239,0.561,0.239c0.057,0,0.111-0.005,0.163-0.015c0.104-0.021,0.198-0.061,0.283-0.12
		c0.042-0.03,0.083-0.064,0.121-0.104c0.151-0.16,0.228-0.345,0.228-0.555c0-0.055-0.005-0.107-0.015-0.158
		c-0.02-0.101-0.059-0.194-0.117-0.28c-0.029-0.043-0.062-0.083-0.102-0.122C55.753,114.801,55.566,114.723,55.348,114.723z"/>
	<path d="M53.521,109.461c0.129,0.09,0.259,0.135,0.391,0.135c0.133,0,0.234-0.043,0.304-0.129c0.07-0.085,0.148-0.177,0.234-0.274
		c0.085-0.097,0.2-0.188,0.345-0.274c0.071-0.043,0.161-0.074,0.27-0.096s0.234-0.032,0.378-0.032c0.269,0,0.499,0.048,0.691,0.145
		c0.063,0.032,0.124,0.069,0.179,0.112c0.056,0.043,0.104,0.09,0.146,0.143c0.125,0.158,0.188,0.359,0.188,0.604
		c0,0.203-0.041,0.38-0.122,0.532c-0.082,0.151-0.182,0.289-0.298,0.414c-0.117,0.125-0.242,0.239-0.374,0.345
		c-0.133,0.105-0.249,0.204-0.351,0.298c-0.085,0.07-0.169,0.156-0.251,0.257c-0.081,0.102-0.156,0.224-0.222,0.368
		c-0.066,0.144-0.121,0.315-0.164,0.514c-0.017,0.076-0.027,0.161-0.037,0.25c-0.016,0.14-0.026,0.288-0.026,0.457
		c0,0.249,0.04,0.42,0.122,0.514c0.062,0.07,0.154,0.113,0.279,0.131c0.042,0.006,0.087,0.009,0.136,0.009l0,0l0,0
		c0.241,0,0.398-0.042,0.473-0.128c0.037-0.043,0.064-0.089,0.083-0.138c0.019-0.048,0.027-0.1,0.027-0.154
		c0-0.089,0.002-0.173,0.004-0.253c0.002-0.073,0.005-0.144,0.009-0.209c0.001-0.018,0.004-0.034,0.006-0.052
		c0.009-0.116,0.027-0.229,0.058-0.333c0.035-0.121,0.094-0.237,0.176-0.351c0.081-0.113,0.192-0.228,0.333-0.345
		c0.086-0.078,0.206-0.185,0.361-0.321c0.078-0.068,0.155-0.143,0.232-0.225s0.153-0.171,0.229-0.266
		c0.151-0.19,0.282-0.409,0.391-0.654c0.109-0.245,0.164-0.52,0.164-0.823c0-0.07-0.004-0.139-0.011-0.207
		c-0.021-0.203-0.074-0.395-0.158-0.576c-0.057-0.12-0.125-0.232-0.205-0.337c-0.08-0.104-0.171-0.2-0.274-0.287
		c-0.103-0.088-0.218-0.166-0.343-0.235c-0.126-0.069-0.263-0.129-0.41-0.18c-0.297-0.101-0.631-0.151-1.005-0.151
		c-0.175,0-0.34,0.011-0.495,0.033c-0.154,0.022-0.299,0.056-0.434,0.101c-0.095,0.032-0.178,0.07-0.263,0.108
		c-0.153,0.069-0.297,0.146-0.414,0.236c-0.092,0.07-0.172,0.143-0.24,0.218c-0.067,0.074-0.124,0.152-0.169,0.231
		c-0.09,0.16-0.135,0.31-0.135,0.45c0,0.146,0.036,0.263,0.109,0.35C53.46,109.413,53.488,109.439,53.521,109.461z"/>
	<path d="M53.193,117.031c0.042,0.017,0.083,0.022,0.126,0.021c0.094,0.419,0.216,0.74,0.363,0.957
		c0.171,0.25,0.322,0.47,0.461,0.63c0.303,0.352,0.562,0.453,1.173,0.453h0.001h0.005c0.596,0,0.855-0.102,1.159-0.453
		c0.138-0.16,0.29-0.38,0.461-0.63c0.048-0.07,0.094-0.158,0.146-0.275c0.004-0.009,0.007-0.019,0.011-0.027
		c0.047-0.109,0.091-0.229,0.129-0.359c0.002-0.006,0.003-0.012,0.005-0.019c0.027-0.095,0.052-0.187,0.072-0.276
		c0.042,0.003,0.084-0.004,0.125-0.02c0.199-0.075,0.255-0.328,0.307-0.65c0.103-0.629-0.062-0.791-0.218-0.816
		c-0.002-0.001-0.004,0-0.006-0.001l0.061-0.803c0.017-0.453-0.154-0.891-0.465-1.22c-0.237-0.253-0.479-0.413-0.783-0.51
		c-0.011-0.003-0.023-0.004-0.034-0.007c-0.007,0.131-0.011,0.278-0.011,0.437c0,0.194-0.068,0.377-0.199,0.528
		c-0.018,0.021-0.041,0.031-0.061,0.049h0.332c0.382,0,0.696,0.28,0.755,0.646c0.002,0.014,0.003,0.028,0.004,0.041
		c0.001,0,0.002,0,0.002,0c0.004,0.024,0.005,0.049,0.006,0.072c0,0.003,0.001,0.006,0.001,0.009v0.006v0.036v0.875v0.042v0.264
		l0.12-0.173c0.08-0.114,0.173-0.175,0.257-0.161c0.132,0.021,0.173,0.271,0.108,0.665c-0.043,0.271-0.09,0.498-0.223,0.548
		c-0.028,0.012-0.058,0.015-0.082,0.011c-0.006-0.002-0.013-0.004-0.025-0.009l-0.07-0.024l-0.016,0.073
		c-0.024,0.113-0.053,0.229-0.089,0.351c-0.039,0.135-0.084,0.259-0.134,0.37c-0.049,0.11-0.092,0.191-0.135,0.254
		c-0.168,0.247-0.318,0.464-0.452,0.618c-0.278,0.323-0.496,0.407-1.059,0.407h-0.003h-0.017c-0.562,0-0.78-0.084-1.059-0.407
		c-0.134-0.154-0.284-0.371-0.452-0.618c-0.145-0.213-0.266-0.541-0.357-0.975l-0.021-0.071l-0.071,0.025
		c-0.006,0.002-0.013,0.004-0.018,0.006c-0.027,0.004-0.055,0.001-0.084-0.011c-0.143-0.054-0.201-0.308-0.239-0.548
		c-0.062-0.382-0.013-0.643,0.126-0.665c0.084-0.013,0.177,0.047,0.257,0.161l0.12,0.173v-0.264v-0.042v-0.875v-0.036v-0.006
		c0-0.262,0.132-0.492,0.332-0.631c0.124-0.086,0.274-0.137,0.436-0.137h0.446c-0.022-0.02-0.047-0.036-0.066-0.059
		c-0.146-0.165-0.213-0.404-0.213-0.752c0-0.085,0.007-0.16,0.011-0.238c-0.381,0.088-0.658,0.259-0.934,0.552
		c-0.311,0.329-0.481,0.767-0.465,1.22l0.061,0.803c-0.002,0.001-0.004,0-0.006,0.001c-0.228,0.037-0.313,0.334-0.235,0.815
		C52.917,116.674,52.988,116.954,53.193,117.031z"/>
</g>
<g opacity="0.1">
	<polygon points="32.975,134.033 33.041,134.623 33.813,134.623 33.879,134.033 33.427,133.644 	"/>
	<path d="M30.538,134.701l0.094-0.066l0.271-0.194l-0.32,0.028l-0.105,0.009l-0.025-0.103l-0.326-1.338l-1.13,0.289
		c-0.737,0.242-1.235,0.932-1.235,1.708v2.023h0.463h1.338h0.374h2.049l-1.386-2.259L30.538,134.701z"/>
	<path d="M37.857,133.326l-1.13-0.289l-0.326,1.338l-0.025,0.103l-0.104-0.009l-0.321-0.028l0.271,0.194l0.094,0.066l-0.061,0.098
		l-1.385,2.259h2.048h0.374h1.338h0.463v-2.023C39.093,134.258,38.595,133.568,37.857,133.326z"/>
	<path d="M35.062,132.385l0.021-0.071l0.012-0.04l-0.216-0.154l-1.452,1.387l-1.452-1.387l-0.216,0.154l0.012,0.04l0.021,0.071
		c0.034-0.021,0.171-0.106,0.171-0.106l1.285,1.227l-0.354,0.304l-0.549,0.454l0.04,0.136l0.589-0.496l0.452-0.389l0.452,0.389
		l0.589,0.496l0.041-0.136l-0.55-0.454l-0.354-0.304l1.285-1.227C34.891,132.278,35.027,132.364,35.062,132.385z"/>
	<path d="M31.975,131.606v0.361l0.172,0.146v-0.36C32.089,131.709,32.031,131.661,31.975,131.606z"/>
	<path d="M34.879,131.606c-0.057,0.055-0.113,0.103-0.172,0.146v0.36l0.172-0.146V131.606z"/>
	<polygon points="33.969,136.199 33.822,134.703 33.031,134.703 32.885,136.199 32.973,136.474 33.15,137.025 33.161,137.058 
		33.693,137.058 33.703,137.025 33.881,136.474 	"/>
	<polygon points="32.144,134.013 31.652,132.349 30.245,133.007 30.572,134.346 31.342,134.278 30.703,134.734 32.128,137.058 
		32.369,137.058 32.81,137.058 33.042,137.058 32.864,136.456 	"/>
	<polygon points="35.512,134.278 36.282,134.346 36.608,133.007 36.608,133.007 35.201,132.349 34.71,134.013 33.989,136.456 
		33.812,137.058 34.044,137.058 34.484,137.058 34.726,137.058 36.15,134.734 	"/>
	<path d="M33.478,126.26c-0.071,0-0.14,0.007-0.205,0.02c-0.196,0.038-0.369,0.133-0.518,0.285c-0.147,0.151-0.24,0.327-0.277,0.524
		c-0.013,0.066-0.019,0.135-0.019,0.205c0,0.274,0.096,0.515,0.288,0.723c0.193,0.208,0.437,0.312,0.73,0.312
		c0.073,0,0.144-0.007,0.211-0.02c0.136-0.026,0.258-0.078,0.369-0.156c0.056-0.038,0.108-0.084,0.157-0.136
		c0.198-0.208,0.297-0.448,0.297-0.723c0-0.07-0.006-0.139-0.019-0.205c-0.025-0.132-0.076-0.253-0.152-0.365
		c-0.038-0.056-0.083-0.108-0.134-0.159C34.005,126.361,33.762,126.26,33.478,126.26z"/>
	<path d="M31.098,119.409c0.168,0.117,0.337,0.175,0.509,0.175c0.173,0,0.305-0.056,0.396-0.167c0.091-0.111,0.192-0.23,0.304-0.357
		c0.111-0.126,0.261-0.245,0.448-0.357c0.094-0.056,0.211-0.097,0.352-0.125s0.306-0.042,0.493-0.042
		c0.349,0,0.649,0.062,0.899,0.188c0.083,0.042,0.161,0.09,0.233,0.146c0.072,0.057,0.135,0.118,0.189,0.187
		c0.162,0.206,0.244,0.468,0.244,0.787c0,0.264-0.054,0.494-0.16,0.692c-0.106,0.197-0.236,0.377-0.388,0.539
		c-0.152,0.163-0.314,0.312-0.487,0.449c-0.172,0.137-0.324,0.266-0.456,0.388c-0.111,0.091-0.221,0.203-0.326,0.334
		c-0.106,0.133-0.203,0.292-0.289,0.479s-0.157,0.41-0.213,0.669c-0.021,0.099-0.036,0.21-0.048,0.325
		c-0.021,0.182-0.036,0.376-0.036,0.595c0,0.324,0.053,0.548,0.16,0.669c0.08,0.092,0.201,0.148,0.363,0.171
		c0.055,0.008,0.113,0.012,0.177,0.012l0,0l0,0c0.313,0,0.519-0.056,0.615-0.167c0.048-0.056,0.084-0.115,0.108-0.179
		c0.023-0.063,0.036-0.13,0.036-0.201c0-0.116,0.001-0.226,0.004-0.329c0.003-0.096,0.007-0.187,0.012-0.272
		c0.001-0.022,0.005-0.044,0.007-0.067c0.013-0.151,0.037-0.297,0.076-0.434c0.046-0.157,0.122-0.31,0.229-0.456
		c0.106-0.147,0.251-0.297,0.434-0.449c0.111-0.101,0.268-0.24,0.471-0.418c0.102-0.089,0.202-0.187,0.303-0.293
		c0.1-0.106,0.199-0.222,0.299-0.346c0.197-0.248,0.367-0.532,0.509-0.852c0.143-0.319,0.213-0.677,0.213-1.072
		c0-0.091-0.005-0.181-0.014-0.269c-0.027-0.265-0.097-0.515-0.207-0.75c-0.073-0.157-0.162-0.304-0.266-0.439
		c-0.104-0.135-0.224-0.26-0.357-0.374c-0.135-0.114-0.283-0.216-0.447-0.306c-0.163-0.091-0.341-0.168-0.534-0.234
		c-0.385-0.132-0.821-0.197-1.307-0.197c-0.229,0-0.443,0.015-0.645,0.043c-0.202,0.029-0.39,0.073-0.565,0.132
		c-0.123,0.041-0.231,0.092-0.342,0.141c-0.2,0.091-0.386,0.189-0.54,0.308c-0.119,0.092-0.223,0.186-0.312,0.283
		s-0.162,0.198-0.221,0.302c-0.116,0.208-0.175,0.403-0.175,0.586c0,0.19,0.047,0.342,0.142,0.455
		C31.02,119.347,31.056,119.381,31.098,119.409z"/>
	<path d="M30.672,129.266c0.055,0.021,0.108,0.029,0.164,0.026c0.122,0.545,0.281,0.964,0.474,1.245
		c0.222,0.325,0.42,0.612,0.6,0.82c0.395,0.458,0.732,0.59,1.527,0.59h0.001h0.007c0.775,0,1.114-0.132,1.509-0.59
		c0.18-0.208,0.378-0.494,0.6-0.82c0.062-0.091,0.123-0.205,0.19-0.357c0.005-0.012,0.01-0.024,0.015-0.035
		c0.062-0.144,0.118-0.3,0.168-0.468c0.002-0.009,0.004-0.017,0.006-0.024c0.036-0.124,0.067-0.244,0.094-0.36
		c0.056,0.003,0.11-0.005,0.164-0.026c0.259-0.098,0.331-0.427,0.398-0.847c0.133-0.818-0.081-1.029-0.284-1.062
		c-0.002-0.001-0.005,0-0.007-0.001l0.079-1.045c0.021-0.59-0.201-1.16-0.605-1.589c-0.31-0.329-0.622-0.537-1.02-0.663
		c-0.014-0.004-0.03-0.005-0.044-0.009c-0.01,0.171-0.015,0.362-0.015,0.568c0,0.253-0.09,0.491-0.259,0.688
		c-0.023,0.026-0.054,0.041-0.079,0.063h0.432c0.497,0,0.907,0.365,0.983,0.841c0.003,0.018,0.003,0.036,0.006,0.054
		c0.001,0,0.002,0,0.003,0c0.004,0.032,0.006,0.062,0.006,0.094c0,0.004,0.001,0.008,0.001,0.012v0.007v0.047v1.141v0.054v0.344
		l0.157-0.226c0.104-0.148,0.225-0.228,0.334-0.209c0.172,0.027,0.225,0.352,0.142,0.865c-0.057,0.352-0.117,0.648-0.291,0.714
		c-0.036,0.015-0.074,0.019-0.105,0.013c-0.009-0.001-0.017-0.004-0.033-0.011l-0.092-0.031l-0.021,0.095
		c-0.031,0.148-0.069,0.298-0.116,0.457c-0.051,0.175-0.109,0.336-0.174,0.481c-0.063,0.144-0.119,0.248-0.176,0.331
		c-0.219,0.321-0.414,0.604-0.588,0.805c-0.363,0.421-0.646,0.53-1.378,0.53H33.44h-0.022c-0.731,0-1.015-0.109-1.378-0.53
		c-0.175-0.202-0.369-0.483-0.588-0.805c-0.189-0.277-0.346-0.705-0.466-1.27l-0.028-0.093l-0.093,0.032
		c-0.008,0.003-0.016,0.007-0.023,0.008c-0.035,0.006-0.07,0.002-0.108-0.014c-0.186-0.069-0.262-0.399-0.312-0.713
		c-0.081-0.496-0.016-0.836,0.165-0.865c0.109-0.018,0.23,0.061,0.334,0.209l0.156,0.226v-0.344v-0.054v-1.141v-0.047v-0.007
		c0-0.341,0.172-0.642,0.433-0.822c0.161-0.111,0.356-0.178,0.567-0.178h0.58c-0.029-0.025-0.061-0.047-0.086-0.076
		c-0.188-0.215-0.277-0.525-0.277-0.979c0-0.109,0.009-0.207,0.014-0.31c-0.495,0.115-0.855,0.337-1.216,0.718
		c-0.403,0.429-0.626,0.999-0.604,1.589l0.079,1.045c-0.002,0.001-0.005,0-0.008,0.001c-0.297,0.048-0.408,0.436-0.307,1.062
		C30.312,128.799,30.405,129.165,30.672,129.266z"/>
</g>
<g opacity="0.1">
	<polygon points="185.614,128.592 185.737,129.698 187.186,129.698 187.309,128.592 186.462,127.862 	"/>
	<path d="M181.047,129.845l0.175-0.125l0.51-0.364l-0.603,0.053l-0.197,0.017l-0.047-0.191l-0.612-2.508l-2.117,0.541
		c-1.382,0.455-2.316,1.746-2.316,3.202v3.794h0.868h2.509h0.7h3.841l-2.598-4.234L181.047,129.845z"/>
	<path d="M194.768,127.267l-2.117-0.541l-0.612,2.508l-0.047,0.191l-0.197-0.017l-0.603-0.053l0.51,0.364l0.175,0.125l-0.112,0.184
		l-2.597,4.234h3.84h0.7h2.51h0.867v-3.794C197.084,129.013,196.149,127.722,194.768,127.267z"/>
	<path d="M189.526,125.503l0.04-0.134l0.022-0.076l-0.404-0.29l-2.723,2.601l-2.723-2.601l-0.405,0.29l0.022,0.076l0.04,0.134
		c0.064-0.04,0.321-0.201,0.321-0.201l2.408,2.3l-0.662,0.571l-1.029,0.849l0.075,0.256l1.104-0.931l0.848-0.729l0.847,0.729
		l1.105,0.931l0.075-0.256l-1.03-0.849l-0.662-0.571l2.408-2.3C189.205,125.302,189.462,125.463,189.526,125.503z"/>
	<path d="M183.739,124.043v0.677l0.322,0.272v-0.676C183.952,124.235,183.845,124.146,183.739,124.043z"/>
	<path d="M189.185,124.043c-0.106,0.103-0.214,0.192-0.323,0.273v0.676l0.323-0.272V124.043z"/>
	<polygon points="187.478,132.653 187.203,129.849 185.721,129.849 185.445,132.653 185.61,133.167 185.943,134.203 
		185.963,134.263 186.96,134.263 186.979,134.203 187.312,133.167 	"/>
	<polygon points="184.056,128.554 183.136,125.435 180.496,126.668 181.109,129.179 182.553,129.053 181.355,129.907 
		184.027,134.263 184.479,134.263 185.305,134.263 185.739,134.263 185.406,133.135 	"/>
	<polygon points="190.371,129.053 191.814,129.179 192.428,126.668 192.427,126.668 189.787,125.435 188.867,128.554 
		187.517,133.135 187.184,134.263 187.618,134.263 188.443,134.263 188.896,134.263 191.567,129.907 	"/>
	<path d="M186.557,114.02c-0.134,0-0.262,0.012-0.385,0.036c-0.368,0.071-0.691,0.249-0.97,0.534
		c-0.277,0.285-0.451,0.613-0.521,0.983c-0.023,0.124-0.035,0.252-0.035,0.385c0,0.514,0.18,0.965,0.541,1.354
		s0.817,0.584,1.369,0.584c0.138,0,0.27-0.012,0.396-0.036c0.253-0.049,0.483-0.146,0.691-0.292
		c0.104-0.073,0.202-0.159,0.295-0.256c0.37-0.39,0.557-0.841,0.557-1.354c0-0.133-0.013-0.261-0.036-0.385
		c-0.048-0.247-0.143-0.475-0.285-0.684c-0.071-0.105-0.154-0.205-0.25-0.3C187.545,114.21,187.089,114.02,186.557,114.02z"/>
	<path d="M182.095,101.177c0.314,0.218,0.632,0.327,0.955,0.327c0.322,0,0.57-0.104,0.741-0.313
		c0.171-0.209,0.361-0.432,0.571-0.669c0.208-0.238,0.488-0.461,0.84-0.671c0.176-0.104,0.396-0.183,0.659-0.234
		c0.264-0.053,0.572-0.079,0.924-0.079c0.654,0,1.218,0.118,1.687,0.353c0.156,0.079,0.302,0.17,0.437,0.274
		c0.136,0.104,0.254,0.222,0.355,0.35c0.305,0.385,0.458,0.877,0.458,1.476c0,0.494-0.101,0.926-0.3,1.297
		c-0.199,0.37-0.442,0.708-0.728,1.012c-0.284,0.305-0.59,0.585-0.912,0.842c-0.323,0.256-0.608,0.498-0.855,0.727
		c-0.208,0.171-0.413,0.381-0.612,0.627c-0.199,0.248-0.381,0.547-0.541,0.898c-0.162,0.352-0.295,0.77-0.399,1.254
		c-0.041,0.186-0.068,0.394-0.091,0.609c-0.039,0.342-0.065,0.705-0.065,1.115c0,0.608,0.099,1.026,0.299,1.255
		c0.149,0.171,0.377,0.277,0.682,0.32c0.102,0.015,0.211,0.021,0.33,0.021l0,0l0,0c0.589,0,0.974-0.104,1.154-0.313
		c0.091-0.104,0.158-0.216,0.203-0.335c0.045-0.118,0.067-0.244,0.067-0.377c0-0.218,0.003-0.423,0.009-0.617
		c0.005-0.18,0.012-0.351,0.021-0.51c0.002-0.044,0.011-0.084,0.014-0.127c0.023-0.284,0.068-0.558,0.143-0.813
		c0.086-0.295,0.229-0.579,0.428-0.855c0.199-0.275,0.471-0.556,0.812-0.841c0.21-0.189,0.503-0.451,0.884-0.784
		c0.19-0.166,0.379-0.35,0.566-0.549s0.374-0.416,0.561-0.648c0.37-0.466,0.688-0.998,0.954-1.597
		c0.267-0.599,0.399-1.269,0.399-2.01c0-0.171-0.009-0.339-0.026-0.504c-0.052-0.495-0.181-0.964-0.387-1.406
		c-0.138-0.294-0.305-0.568-0.5-0.822c-0.194-0.255-0.418-0.489-0.669-0.703c-0.252-0.214-0.531-0.404-0.838-0.573
		s-0.641-0.314-1.002-0.438c-0.723-0.246-1.539-0.37-2.451-0.37c-0.428,0-0.83,0.027-1.208,0.082
		c-0.377,0.054-0.73,0.136-1.059,0.245c-0.231,0.077-0.435,0.172-0.641,0.265c-0.376,0.17-0.725,0.355-1.013,0.576
		c-0.223,0.172-0.418,0.349-0.585,0.531c-0.166,0.183-0.304,0.372-0.413,0.566c-0.219,0.39-0.327,0.756-0.327,1.098
		c0,0.356,0.088,0.641,0.265,0.853C181.948,101.06,182.017,101.122,182.095,101.177z"/>
	<path d="M181.297,119.654c0.102,0.04,0.204,0.055,0.308,0.05c0.229,1.021,0.527,1.807,0.888,2.335
		c0.415,0.609,0.787,1.146,1.124,1.537c0.74,0.857,1.374,1.105,2.863,1.105h0.001h0.013c1.455,0,2.089-0.247,2.829-1.105
		c0.337-0.391,0.709-0.928,1.125-1.538c0.116-0.171,0.229-0.384,0.357-0.671c0.01-0.021,0.018-0.045,0.026-0.065
		c0.116-0.269,0.223-0.562,0.314-0.877c0.005-0.017,0.008-0.03,0.012-0.046c0.067-0.232,0.127-0.456,0.177-0.675
		c0.104,0.006,0.207-0.01,0.307-0.049c0.485-0.184,0.62-0.801,0.748-1.588c0.249-1.535-0.152-1.931-0.533-1.993
		c-0.004,0-0.009,0.001-0.014,0l0.148-1.96c0.041-1.105-0.377-2.175-1.134-2.979c-0.582-0.616-1.168-1.007-1.913-1.242
		c-0.024-0.008-0.057-0.011-0.082-0.019c-0.019,0.321-0.027,0.68-0.027,1.066c0,0.475-0.168,0.92-0.485,1.288
		c-0.044,0.051-0.101,0.078-0.148,0.12h0.81c0.933,0,1.7,0.684,1.844,1.576c0.005,0.033,0.006,0.067,0.011,0.101
		c0.002,0,0.004,0,0.006,0c0.008,0.06,0.01,0.117,0.012,0.175c0,0.008,0.002,0.016,0.002,0.023v0.013v0.088v2.138v0.101v0.646
		l0.294-0.423c0.194-0.279,0.421-0.428,0.626-0.393c0.322,0.052,0.422,0.658,0.266,1.622c-0.106,0.659-0.221,1.216-0.545,1.338
		c-0.068,0.027-0.14,0.035-0.199,0.024c-0.016-0.002-0.03-0.009-0.062-0.02l-0.173-0.06l-0.038,0.179
		c-0.059,0.277-0.129,0.558-0.217,0.856c-0.095,0.326-0.205,0.63-0.326,0.901c-0.119,0.27-0.225,0.467-0.329,0.621
		c-0.411,0.603-0.777,1.132-1.103,1.51c-0.681,0.789-1.213,0.993-2.585,0.993h-0.007h-0.041c-1.372,0-1.903-0.204-2.584-0.993
		c-0.327-0.379-0.692-0.908-1.103-1.51c-0.354-0.521-0.648-1.32-0.873-2.379l-0.053-0.175l-0.173,0.062
		c-0.016,0.005-0.03,0.011-0.045,0.014c-0.065,0.011-0.132,0.003-0.202-0.024c-0.349-0.132-0.492-0.75-0.587-1.338
		c-0.151-0.931-0.029-1.567,0.309-1.622c0.205-0.033,0.433,0.113,0.627,0.393l0.294,0.422v-0.645v-0.101v-2.138v-0.088v-0.013
		c0-0.64,0.321-1.203,0.811-1.541c0.303-0.21,0.668-0.334,1.063-0.334h1.087c-0.054-0.047-0.113-0.089-0.161-0.144
		c-0.354-0.401-0.519-0.985-0.519-1.836c0-0.206,0.016-0.389,0.024-0.58c-0.929,0.215-1.604,0.631-2.278,1.346
		c-0.758,0.804-1.175,1.873-1.134,2.979l0.147,1.96c-0.004,0-0.009,0-0.014,0c-0.557,0.091-0.767,0.817-0.575,1.992
		C180.622,118.779,180.797,119.466,181.297,119.654z"/>
</g>
</svg>
